<svg width="500" height="500" viewBox="0 0 500 500" fill="none" xmlns="http://www.w3.org/2000/svg">
<path d="M189.74 67.6799C189 65.1799 184 60.4499 179 60.5499C178.518 60.5638 178.041 60.6585 177.59 60.8299L80 116.36C78.5732 117.181 77.3865 118.362 76.5583 119.785C75.7302 121.208 75.2894 122.824 75.28 124.47V335.6C75.28 340.97 81.48 346.11 87.28 343.6C87.4067 343.559 87.5303 343.508 87.65 343.45L185.26 287.83C186.69 287.013 187.88 285.833 188.707 284.409C189.534 282.985 189.97 281.367 189.97 279.72V68.7199C189.978 68.3598 189.899 68.0032 189.74 67.6799Z" fill="#37474F"/>
<path d="M88.85 146.79C88.8497 145.965 89.068 145.155 89.4825 144.442C89.8971 143.729 90.4931 143.138 91.21 142.73L181.84 91.1699C182.193 90.9705 182.592 90.8664 182.998 90.8677C183.403 90.869 183.802 90.9757 184.154 91.1774C184.506 91.3791 184.799 91.6688 185.005 92.0181C185.212 92.3674 185.323 92.7643 185.33 93.1699V263.44C185.33 264.261 185.115 265.068 184.706 265.781C184.298 266.493 183.709 267.086 183 267.5L92.34 319.14C91.9867 319.339 91.5877 319.443 91.1821 319.442C90.7765 319.441 90.3781 319.334 90.0262 319.132C89.6743 318.931 89.3808 318.641 89.1746 318.292C88.9684 317.942 88.8565 317.546 88.85 317.14V146.79Z" fill="#FFBF4C"/>
<path d="M75.24 124.47V335.6C75.24 340.97 81.44 346.11 87.24 343.6C86.8891 343.726 86.513 343.767 86.1433 343.718C85.7736 343.669 85.4211 343.531 85.1154 343.318C84.8097 343.104 84.5597 342.82 84.3865 342.49C84.2133 342.16 84.1219 341.793 84.12 341.42V130.31C84.1274 128.472 84.6771 126.677 85.7 125.15L76.14 120.38C75.5356 121.658 75.2279 123.056 75.24 124.47Z" fill="#263238"/>
<path d="M179 60.5499C178.518 60.5638 178.041 60.6585 177.59 60.8299L80 116.36C78.3743 117.286 77.0643 118.68 76.24 120.36L85.8 125.13C86.5941 123.895 87.6703 122.867 88.94 122.13L186.55 66.5999C186.825 66.442 187.13 66.3426 187.445 66.3076C187.76 66.2727 188.08 66.3031 188.383 66.397C188.686 66.4908 188.966 66.646 189.207 66.853C189.447 67.0599 189.642 67.3142 189.78 67.5999C189 65.1799 184 60.4499 179 60.5499Z" fill="#455A64"/>
<path d="M149.12 101.53C149.8 101.13 150.37 101.44 150.37 102.23C150.346 102.662 150.222 103.082 150.006 103.457C149.791 103.832 149.491 104.152 149.13 104.39L129.98 115.39C129.29 115.79 128.74 115.46 128.74 114.67C128.758 114.241 128.88 113.822 129.094 113.45C129.308 113.078 129.608 112.762 129.97 112.53L149.12 101.53Z" fill="#263238"/>
<path d="M125.05 115.42C125.74 115.03 126.29 115.34 126.29 116.13C126.268 116.56 126.145 116.978 125.932 117.352C125.718 117.725 125.419 118.043 125.06 118.28C124.37 118.68 123.81 118.35 123.8 117.57C123.827 117.139 123.954 116.721 124.171 116.347C124.388 115.974 124.689 115.657 125.05 115.42Z" fill="#263238"/>
<path d="M137.31 99.9199C138.68 99.1299 139.78 99.7599 139.79 101.33C139.745 102.19 139.498 103.028 139.069 103.775C138.64 104.522 138.041 105.158 137.32 105.63C135.96 106.42 134.82 105.78 134.82 104.2C134.868 103.341 135.118 102.505 135.551 101.761C135.984 101.017 136.586 100.386 137.31 99.9199Z" fill="#263238"/>
<path d="M137.32 298.67C140.1 297.06 142.32 298.35 142.32 301.55C142.235 303.301 141.738 305.007 140.869 306.529C140 308.051 138.784 309.347 137.32 310.31C134.53 311.92 132.22 310.6 132.21 307.4C132.313 305.645 132.83 303.939 133.718 302.422C134.606 300.905 135.84 299.619 137.32 298.67Z" fill="#263238"/>
<path d="M151.83 184.79L155.09 182.97C158.183 181.24 161.744 180.536 165.262 180.958C168.781 181.38 172.074 182.908 174.67 185.32L201.93 210.66C201.93 210.66 212.24 191.87 214.14 185.66C214.74 183.66 213.59 181.6 213.02 179.66C212.322 177.742 212.099 175.683 212.37 173.66C212.829 171.024 212.619 168.314 211.76 165.78C211.693 165.563 211.681 165.332 211.722 165.109C211.764 164.885 211.859 164.675 212 164.497C212.14 164.318 212.322 164.176 212.529 164.082C212.736 163.989 212.963 163.947 213.19 163.96H213.48C214.22 163.992 214.926 164.278 215.48 164.77C215.97 165.315 216.314 165.976 216.48 166.69C217.049 168.484 217.441 170.329 217.65 172.2C219.231 168.627 219.986 164.745 219.86 160.84C219.681 159.353 219.708 157.849 219.94 156.37C220.068 155.633 220.406 154.949 220.913 154.399C221.421 153.849 222.076 153.457 222.8 153.27C223.551 154.334 224.1 155.527 224.42 156.79C224.856 156.61 225.326 156.524 225.797 156.536C226.269 156.548 226.733 156.658 227.16 156.86C227.546 157.091 227.875 157.407 228.122 157.782C228.37 158.158 228.53 158.584 228.59 159.03C230.78 159.18 232.67 161.13 233.59 163.13C234.376 165.19 234.66 167.408 234.42 169.6C233.952 176.808 231.379 183.72 227.02 189.48C223.49 202.89 220.35 217.99 215.34 229.74C214.751 231.086 213.873 232.287 212.768 233.255C211.663 234.223 210.357 234.936 208.945 235.343C207.533 235.75 206.049 235.84 204.598 235.608C203.147 235.376 201.765 234.827 200.55 234C188.32 225.839 176.518 217.054 165.19 207.68L151.83 184.79Z" fill="#8C5554"/>
<path d="M151.83 184.79L155.09 182.97C158.183 181.24 161.744 180.536 165.262 180.958C168.781 181.38 172.074 182.907 174.67 185.32L196.14 205.32C194 216.23 183.73 223.81 183.73 223.81L165.19 207.76L151.83 184.79Z" fill="#E0E0E0"/>
<path opacity="0.2" d="M199.18 223.22C199.09 217.79 200.18 214.7 201.93 210.66L200.5 209.33C199.18 211 196.61 215.58 199.18 223.22Z" fill="black"/>
<path opacity="0.2" d="M220.22 186.11C221.663 184.537 222.444 182.468 222.401 180.334C222.358 178.2 221.495 176.164 219.99 174.65C221.072 175.1 222.006 175.844 222.684 176.799C223.363 177.754 223.76 178.88 223.83 180.05C223.819 181.289 223.478 182.503 222.844 183.568C222.21 184.633 221.304 185.51 220.22 186.11Z" fill="black"/>
<path d="M173.38 262L115 263C115 263 111.66 281.2 110.72 308.7L173.24 273.07L173.38 262Z" fill="#455A64"/>
<path d="M152.27 180.84L157.82 181.42C159.85 181.632 161.807 182.295 163.547 183.361C165.288 184.427 166.768 185.868 167.88 187.58C173.6 196.4 176.26 209.89 174.72 224.49C173.549 236.957 173.102 249.481 173.38 262C149.25 279.61 118.81 266.78 114.98 263L116.77 240.7C116.964 238.19 116.546 235.671 115.55 233.36C113.27 228.06 109.21 217.65 108.66 209.58C108.33 202.391 109.845 195.238 113.06 188.8L134.22 180.86L152.27 180.84Z" fill="#F0F0F0"/>
<path d="M134.14 166.82V181.26C134.134 182.2 134.326 183.131 134.704 183.993C135.081 184.854 135.635 185.626 136.33 186.26C140.153 189.622 145.148 191.34 150.23 191.04C151.256 191.057 152.26 190.749 153.1 190.16C153.609 189.659 153.966 189.023 154.128 188.328C154.291 187.632 154.254 186.905 154.02 186.23C153.812 185.55 153.502 184.906 153.1 184.32C152.293 183.096 151.852 181.666 151.83 180.2V166.82H134.14Z" fill="#8C5554"/>
<path d="M135.18 166.91L151.83 166.82V179.09C148.08 178.36 144.42 177.4 141.3 175.24C138.41 173.201 136.262 170.277 135.18 166.91Z" fill="#733D3C"/>
<path d="M167.4 142.39C169.258 142.451 171.097 142 172.716 141.086C174.335 140.173 175.672 138.832 176.58 137.21C176.7 136.977 176.752 136.715 176.73 136.454C176.707 136.193 176.612 135.944 176.454 135.735C176.296 135.526 176.083 135.366 175.838 135.273C175.593 135.18 175.327 135.158 175.07 135.21C173.786 135.435 172.474 135.435 171.19 135.21C172.667 133.282 173.747 131.08 174.366 128.732C174.986 126.384 175.133 123.936 174.8 121.53C174.759 121.262 174.657 121.008 174.5 120.787C174.343 120.567 174.137 120.386 173.898 120.26C173.659 120.133 173.393 120.065 173.122 120.059C172.852 120.054 172.584 120.113 172.34 120.23C167.013 122.873 161.085 124.07 155.15 123.7C151.99 123.48 148.88 122.81 145.72 122.57C142.562 122.186 139.36 122.673 136.46 123.98C133.64 125.42 131.39 128.28 131.39 131.45C131.031 130.939 130.566 130.512 130.025 130.199C129.484 129.886 128.882 129.696 128.26 129.64C127.608 129.558 126.947 129.611 126.317 129.797C125.687 129.983 125.103 130.297 124.6 130.72C126.43 131.72 128.21 132.72 130.04 133.72C128.17 133.05 125.81 134.52 124.88 136.27C124.09 138.1 123.747 140.091 123.88 142.08C123.766 144.722 123.883 147.368 124.23 149.99C124.587 152.619 125.621 155.11 127.23 157.22C128.645 158.951 130.536 160.23 132.67 160.9C135.57 161.703 138.646 161.605 141.49 160.62C144.315 159.629 147.003 158.285 149.49 156.62C155.881 152.432 161.876 147.669 167.4 142.39Z" fill="#263238"/>
<path d="M167.8 137.13C169.622 148.061 168.418 159.283 164.32 169.58C163.37 171.96 162.13 174.42 159.91 175.69C157.69 176.96 154.69 176.74 152.04 176.34C147.735 175.857 143.537 174.679 139.61 172.85C135.76 170.85 132.38 167.67 131 163.57C129.593 163.857 128.132 163.732 126.794 163.209C125.457 162.685 124.299 161.786 123.46 160.62C121.818 158.193 120.966 155.319 121.02 152.39C121.02 150.53 121.37 148.33 123.02 147.51C124.67 146.69 126.44 147.6 127.79 148.69C130.006 150.503 131.623 152.943 132.43 155.69C133.66 151.16 135.58 146.78 136.81 142.24C137.29 140.46 137.89 138.51 139.45 137.52C141.35 136.3 143.83 137 146.03 137.52C153.201 139.251 160.696 139.116 167.8 137.13Z" fill="#8C5554"/>
<path d="M154.58 150.9L159.88 159.83L153.56 161.01L154.58 150.9Z" fill="#733D3C"/>
<path d="M147.46 164.09L152.27 166.43C151.853 166.971 151.271 167.361 150.613 167.542C149.954 167.722 149.254 167.683 148.62 167.43C147.44 166.93 147.11 165.34 147.46 164.09Z" fill="#733D3C"/>
<path opacity="0.3" d="M147.46 164.09L152.27 166.43C151.853 166.971 151.271 167.361 150.613 167.542C149.954 167.722 149.254 167.683 148.62 167.43C147.44 166.93 147.11 165.34 147.46 164.09Z" fill="black"/>
<path d="M150.29 167.62C149.73 167.735 149.148 167.68 148.62 167.46C148.179 167.213 147.822 166.841 147.594 166.39C147.366 165.94 147.278 165.431 147.34 164.93C148.081 164.92 148.799 165.192 149.347 165.692C149.894 166.192 150.232 166.881 150.29 167.62Z" fill="#733D3C"/>
<path d="M145.42 151.25C145.385 151.605 145.455 151.963 145.623 152.278C145.791 152.594 146.048 152.853 146.362 153.022C146.676 153.192 147.034 153.264 147.389 153.231C147.745 153.198 148.083 153.06 148.36 152.835C148.638 152.611 148.843 152.309 148.949 151.968C149.055 151.627 149.058 151.262 148.958 150.919C148.857 150.577 148.658 150.271 148.384 150.042C148.11 149.812 147.775 149.669 147.42 149.63C147.182 149.604 146.941 149.625 146.712 149.692C146.482 149.759 146.268 149.872 146.082 150.022C145.896 150.173 145.742 150.359 145.628 150.57C145.514 150.781 145.444 151.012 145.42 151.25Z" fill="#263238"/>
<path d="M160.65 152.2C160.614 152.558 160.686 152.918 160.855 153.235C161.024 153.553 161.283 153.813 161.6 153.983C161.916 154.153 162.276 154.226 162.634 154.192C162.992 154.158 163.332 154.018 163.611 153.791C163.89 153.564 164.095 153.259 164.2 152.915C164.306 152.572 164.308 152.204 164.205 151.86C164.102 151.515 163.9 151.209 163.623 150.979C163.346 150.75 163.008 150.607 162.65 150.57C162.169 150.522 161.689 150.667 161.314 150.972C160.939 151.278 160.7 151.719 160.65 152.2Z" fill="#263238"/>
<path d="M163.14 145.18L166.86 148.35C167.084 147.873 167.158 147.338 167.07 146.818C166.982 146.298 166.738 145.817 166.37 145.44C165.909 145.101 165.363 144.897 164.792 144.851C164.221 144.805 163.649 144.919 163.14 145.18Z" fill="#263238"/>
<path d="M147.68 143.4L143.39 145.77C143.266 145.256 143.303 144.716 143.494 144.223C143.685 143.73 144.022 143.307 144.46 143.01C144.98 142.769 145.557 142.678 146.125 142.747C146.694 142.816 147.233 143.042 147.68 143.4Z" fill="#263238"/>
<path d="M110.58 236L105 256.39L126.66 274.55C128.204 275.841 130.168 276.521 132.18 276.46C134.394 276.309 136.618 276.436 138.8 276.84C140.49 277.22 142.14 277.78 143.8 278.17C144.987 278.469 146.206 278.62 147.43 278.62C147.68 278.609 147.928 278.662 148.151 278.774C148.375 278.885 148.566 279.052 148.707 279.258C148.848 279.464 148.935 279.703 148.958 279.952C148.981 280.201 148.94 280.451 148.84 280.68C148.66 281.055 148.413 281.394 148.11 281.68C147.202 282.387 146.107 282.815 144.96 282.91C143.155 283.163 141.319 283.068 139.55 282.63C141.11 284.63 143.78 285.96 146.22 286.77C148.66 287.58 151.22 288.05 153.63 288.91C154.561 289.154 155.392 289.682 156.01 290.42C156.299 290.8 156.429 291.277 156.373 291.751C156.317 292.224 156.08 292.658 155.71 292.96C154.71 293.6 153.25 292.66 152.11 293.11C152.258 293.768 152.258 294.451 152.11 295.11C151.92 295.78 151.489 296.357 150.9 296.73C150.601 296.915 150.259 297.017 149.908 297.028C149.557 297.039 149.209 296.956 148.9 296.79C148.381 297.586 147.709 298.27 146.923 298.802C146.136 299.334 145.251 299.704 144.32 299.89C142.461 300.247 140.549 300.223 138.7 299.82C130.98 298.39 126.09 291.67 120.04 286.67C119.2 285.98 97.8699 274.09 86.9499 268.02C85.1377 267.015 83.7111 265.436 82.8946 263.532C82.0782 261.627 81.9182 259.505 82.4399 257.5L89.4399 230.41L110.58 236Z" fill="#8C5554"/>
<path opacity="0.2" d="M91.6899 256C94.0299 254.9 101.51 254 105 256.44L105.57 254.35C103.364 253.178 100.852 252.708 98.3718 253.003C95.8912 253.298 93.5599 254.344 91.6899 256Z" fill="black"/>
<path d="M113.27 188.7L110.21 189.57C107.096 190.455 104.243 192.084 101.896 194.315C99.5501 196.546 97.7806 199.314 96.74 202.38L87 231.17C95.83 240.44 111.68 237.6 111.68 237.6L114.77 223C125.84 203.66 115.67 191.84 113.27 188.7Z" fill="#E0E0E0"/>
<path d="M377.27 333.4C376.48 330.86 375.62 328.27 375.8 325.62L375.27 325.75C373.175 326.19 371.04 326.411 368.9 326.41H368.23C368.8 329.56 368.39 332.79 368.23 335.99C368.07 339.19 368.07 342.52 369.44 345.41C369.756 346.195 370.299 346.867 371 347.34C371.383 347.546 371.804 347.672 372.237 347.71C372.671 347.748 373.107 347.697 373.52 347.56C374.35 347.287 375.104 346.821 375.72 346.2C377.125 344.865 378.062 343.111 378.39 341.2C378.79 338.59 378.06 335.93 377.27 333.4Z" fill="#F28F8F"/>
<path d="M377.27 333.4C376.48 330.86 375.62 328.27 375.8 325.62L375.27 325.75C375.48 328.75 375.55 331.83 375.49 334.87C375.521 335.784 375.382 336.697 375.08 337.56C374.924 337.993 374.657 338.378 374.306 338.676C373.955 338.975 373.533 339.176 373.08 339.26C372.569 339.272 372.066 339.138 371.628 338.874C371.191 338.61 370.838 338.227 370.61 337.77C370.178 336.846 369.927 335.848 369.87 334.83C369.54 332.02 369.22 329.22 368.87 326.41H368.2C368.77 329.56 368.36 332.79 368.2 335.99C368.04 339.19 368.04 342.52 369.41 345.41C369.726 346.195 370.269 346.867 370.97 347.34C371.353 347.546 371.774 347.672 372.207 347.71C372.641 347.748 373.077 347.697 373.49 347.56C374.32 347.287 375.074 346.821 375.69 346.2C377.095 344.865 378.032 343.111 378.36 341.2C378.79 338.59 378.06 335.93 377.27 333.4Z" fill="#455A64"/>
<path d="M348 322C347.75 321.168 347.415 320.364 347 319.6C346.89 319.4 346.78 319.2 346.68 319C343.97 319.48 341.01 319.65 338.4 320.53C337.618 323.273 336.615 325.949 335.4 328.53C334.564 330.193 333.501 331.731 332.24 333.1C331.563 333.826 330.812 334.479 330 335.05C329.1 335.69 328 336.35 327.87 337.45C327.843 337.907 327.953 338.362 328.184 338.757C328.415 339.152 328.758 339.47 329.17 339.67C329.998 340.064 330.903 340.266 331.82 340.26C333.774 340.441 335.745 340.271 337.64 339.76C339.554 339.251 341.211 338.05 342.29 336.39C342.742 335.567 343.078 334.685 343.29 333.77C343.55 332.83 343.77 331.87 344.09 330.97C344.292 330.381 344.567 329.82 344.91 329.3C345.81 327.95 347.26 326.96 347.91 325.49C347.951 325.415 347.987 325.339 348.02 325.26C348.368 324.2 348.361 323.056 348 322Z" fill="#F28F8F"/>
<path d="M347.91 325.49C347.25 326.96 345.8 327.95 344.91 329.3C344.568 329.82 344.292 330.381 344.09 330.97C343.77 331.87 343.55 332.83 343.29 333.77L344.61 334.11C345.913 333.581 347.05 332.71 347.9 331.59C348 329.18 347.93 326.7 347.91 325.49Z" fill="#37474F"/>
<path d="M343.28 333.77L344.6 334.11L344.08 330.97C343.76 331.87 343.54 332.83 343.28 333.77Z" fill="#263238"/>
<path d="M348 322C347.75 321.168 347.415 320.364 347 319.6C346.962 320.89 346.564 322.145 345.85 323.22C344.95 324.66 343.76 325.91 342.85 327.37C341.85 329.16 341.26 331.26 339.85 332.8C339.174 333.55 338.332 334.132 337.39 334.498C336.449 334.865 335.435 335.006 334.43 334.91C334.054 334.9 333.685 334.817 333.341 334.664C332.998 334.511 332.689 334.292 332.43 334.02C332.221 333.751 332.106 333.421 332.1 333.08C331.423 333.806 330.672 334.459 329.86 335.03C328.96 335.67 327.86 336.33 327.73 337.43C327.703 337.887 327.813 338.342 328.044 338.737C328.275 339.132 328.618 339.45 329.03 339.65C329.858 340.044 330.763 340.246 331.68 340.24C333.634 340.421 335.605 340.251 337.5 339.74C339.414 339.231 341.07 338.03 342.15 336.37C342.602 335.547 342.938 334.665 343.15 333.75C343.41 332.81 343.63 331.85 343.95 330.95C344.152 330.361 344.427 329.8 344.77 329.28C345.67 327.93 347.12 326.94 347.77 325.47C347.811 325.395 347.847 325.319 347.88 325.24C348.269 324.201 348.311 323.065 348 322Z" fill="#455A64"/>
<path d="M338.35 179.13C338.71 179.96 339.68 180.35 340.15 181.13C340.326 181.434 340.418 181.779 340.418 182.13C340.418 182.481 340.326 182.826 340.15 183.13C339.973 183.431 339.719 183.679 339.412 183.847C339.106 184.015 338.76 184.096 338.411 184.083C338.062 184.07 337.723 183.962 337.431 183.771C337.138 183.58 336.903 183.314 336.75 183C336.6 183.729 336.6 184.481 336.75 185.21C336.821 185.576 336.985 185.918 337.227 186.202C337.469 186.486 337.78 186.702 338.13 186.83C337.611 187.358 337.253 188.023 337.097 188.748C336.941 189.472 336.994 190.225 337.25 190.92C337.516 191.615 337.971 192.221 338.562 192.672C339.154 193.122 339.86 193.398 340.6 193.47C340.547 194.521 340.767 195.568 341.238 196.509C341.71 197.45 342.416 198.253 343.29 198.84C345.011 199.961 347.072 200.439 349.11 200.19C351.135 199.936 353.107 199.358 354.95 198.48C357.774 199.552 360.796 200.002 363.81 199.8C365.746 199.752 367.6 199.015 369.04 197.72C370.37 196.33 370.68 193.85 369.26 192.55C369.713 192.824 370.231 192.968 370.76 192.968C371.289 192.968 371.807 192.824 372.26 192.55C372.701 192.31 373.062 191.946 373.3 191.504C373.538 191.062 373.642 190.56 373.6 190.06C373.546 189.56 373.349 189.086 373.034 188.694C372.718 188.303 372.297 188.01 371.82 187.85C372.148 187.634 372.413 187.336 372.589 186.984C372.764 186.633 372.844 186.242 372.82 185.85C372.759 185.469 372.593 185.113 372.34 184.821C372.088 184.53 371.758 184.315 371.39 184.2C371.493 184.526 371.502 184.875 371.416 185.206C371.329 185.537 371.15 185.837 370.9 186.07C370.631 186.263 370.312 186.373 369.982 186.387C369.652 186.402 369.324 186.319 369.04 186.15C368.767 185.972 368.537 185.736 368.364 185.46C368.192 185.184 368.081 184.873 368.04 184.55C367.96 183.909 367.96 183.261 368.04 182.62C368.342 180.41 368.123 178.16 367.4 176.05C367.027 174.999 366.395 174.06 365.563 173.317C364.731 172.574 363.726 172.053 362.64 171.8C361.809 169.233 360.059 167.064 357.726 165.709C355.393 164.355 352.641 163.91 350 164.46C348.886 164.657 347.833 165.111 346.925 165.786C346.017 166.461 345.279 167.339 344.77 168.35C343.816 168.155 342.843 168.075 341.87 168.11C340.905 168.105 339.974 168.462 339.26 169.11C338.912 169.434 338.671 169.857 338.569 170.321C338.467 170.786 338.51 171.27 338.69 171.71C338.98 172.31 339.6 172.85 339.45 173.49C339.3 174.13 338.69 174.32 338.39 174.8C338.266 175.04 338.202 175.305 338.202 175.575C338.202 175.845 338.266 176.11 338.39 176.35C338.634 176.827 338.947 177.265 339.32 177.65C339.65 178.03 339.99 178.51 339.81 178.97C339.63 179.43 338.61 179.57 338.35 179.13Z" fill="#263238"/>
<path d="M341.86 222C341.72 224.3 341.573 226.593 341.42 228.88C336.24 250.23 337.79 282.13 337.79 282.13L338 321C338.733 321.483 339.555 321.815 340.418 321.976C341.281 322.137 342.168 322.124 343.026 321.938C343.884 321.752 344.696 321.396 345.414 320.891C346.133 320.387 346.743 319.744 347.21 319C348.09 309.43 352.54 294.4 351.21 282.66C352.98 273.41 354.32 260.25 354.32 260.25L358.63 283L367.7 327C371.7 328.69 375.26 327.53 376.41 326C375.48 301.77 375.88 290.11 372.14 278.91C373.3 248.85 374.23 235.25 366.9 224.91V221L341.86 222Z" fill="#FFBF4C"/>
<path opacity="0.1" d="M341.86 222C341.72 224.3 341.573 226.593 341.42 228.88C336.24 250.23 337.79 282.13 337.79 282.13L338 321C338.733 321.483 339.555 321.815 340.418 321.976C341.281 322.137 342.168 322.124 343.026 321.938C343.884 321.752 344.696 321.396 345.414 320.891C346.133 320.387 346.743 319.744 347.21 319C348.09 309.43 352.54 294.4 351.21 282.66C352.98 273.41 354.32 260.25 354.32 260.25L358.63 283L367.7 327C371.7 328.69 375.26 327.53 376.41 326C375.48 301.77 375.88 290.11 372.14 278.91C373.3 248.85 374.23 235.25 366.9 224.91V221L341.86 222Z" fill="black"/>
<path opacity="0.3" d="M341.86 222C341.72 224.3 341.573 226.593 341.42 228.88C336.24 250.23 337.79 282.13 337.79 282.13L338 321C338.733 321.483 339.555 321.815 340.418 321.976C341.281 322.137 342.168 322.124 343.026 321.938C343.884 321.752 344.696 321.396 345.414 320.891C346.133 320.387 346.743 319.744 347.21 319C348.09 309.43 352.54 294.4 351.21 282.66C352.98 273.41 354.32 260.25 354.32 260.25L358.63 283L367.7 327C371.7 328.69 375.26 327.53 376.41 326C375.48 301.77 375.88 290.11 372.14 278.91C373.3 248.85 374.23 235.25 366.9 224.91V221L341.86 222Z" fill="white"/>
<path opacity="0.2" d="M344.43 244.32C344.845 245.525 345.563 246.603 346.513 247.452C347.464 248.301 348.616 248.893 349.86 249.17L352.4 259.68C352.661 260.757 352.829 261.854 352.9 262.96L353.31 268.58C353.91 263.84 354.31 260.26 354.31 260.26L351.89 247.65C349.17 247.16 346.61 246.018 344.43 244.32Z" fill="black"/>
<path d="M343 234.62C341.783 233.887 340.789 232.836 340.126 231.579C339.463 230.322 339.157 228.908 339.24 227.49C339.24 227.49 343.65 229.81 345.62 228.57L344.62 226.63C347.408 226.618 350.115 227.572 352.28 229.33C356.477 228.608 360.579 227.417 364.51 225.78C365.655 225.267 366.838 224.846 368.05 224.52C369.266 224.187 370.554 224.222 371.75 224.62C372.344 224.826 372.877 225.181 373.296 225.65C373.716 226.118 374.01 226.686 374.15 227.3C374.222 227.948 374.135 228.603 373.897 229.21C373.658 229.816 373.275 230.355 372.78 230.78C371.776 231.612 370.617 232.237 369.37 232.62C364.32 234.44 345.4 236.1 343 234.62Z" fill="#F28F8F"/>
<path d="M373.5 200.27C373.018 199.427 372.338 198.713 371.52 198.191C370.701 197.668 369.768 197.352 368.8 197.27L361.12 196.6L358.54 196.38V188.07L349.54 191.53V196.34H344.54C342.88 196.339 341.26 196.846 339.898 197.794C338.536 198.742 337.496 200.084 336.92 201.64L329.13 222.64L337.82 224.86L340.22 218.33C340.22 218.71 340.3 219.09 340.36 219.47C340.567 221.316 341.442 223.023 342.82 224.27C344.212 225.268 345.838 225.891 347.54 226.08C351.851 226.808 356.26 226.723 360.54 225.83C362.517 225.513 364.389 224.728 366 223.54V225.22L374.25 227.3L375.65 209.6C375.882 206.345 375.133 203.095 373.5 200.27Z" fill="#F28F8F"/>
<path opacity="0.2" d="M340.14 213.84L340 213.73C338.973 215.573 338.202 217.548 337.71 219.6C336.51 219.364 335.271 219.423 334.099 219.771C332.927 220.12 331.856 220.747 330.98 221.6C330.581 221.994 330.211 222.415 329.87 222.86L337.79 224.86L340.19 218.33C340.034 216.838 340.017 215.335 340.14 213.84Z" fill="black"/>
<path d="M338 224C337.676 223.165 337.144 222.427 336.455 221.857C335.765 221.286 334.94 220.902 334.06 220.74C333.143 220.633 332.213 220.756 331.355 221.096C330.496 221.436 329.735 221.984 329.14 222.69C328.718 223.281 328.47 223.979 328.426 224.704C328.382 225.429 328.543 226.152 328.89 226.79C329.385 227.866 330.237 228.738 331.301 229.258C332.366 229.777 333.577 229.912 334.73 229.64C337 229 338.79 226.15 338 224Z" fill="#F28F8F"/>
<path opacity="0.2" d="M338 224C337.552 222.855 336.717 221.903 335.64 221.31C334.559 222.307 333.892 223.674 333.774 225.14C333.655 226.606 334.093 228.063 335 229.22L335.21 229.45C337.21 228.55 338.73 226 338 224Z" fill="black"/>
<path opacity="0.15" d="M348.93 234.9V234.82V234.76L342.93 223.34L342.08 224.29L348.08 235.71C348.121 235.774 348.148 235.845 348.16 235.92C348.172 235.963 348.172 236.008 348.16 236.05L349.01 235.05V234.98L348.93 234.9Z" fill="white"/>
<path opacity="0.2" d="M342.86 223.22H342.81H342.76L342.67 223.14H342.47L335.47 219.14H335.22C335.188 219.129 335.152 219.129 335.12 219.14L334.27 220.14C334.303 220.123 334.339 220.115 334.375 220.115C334.412 220.115 334.448 220.123 334.48 220.14C334.615 220.172 334.743 220.226 334.86 220.3L341.86 224.3C342.002 224.376 342.136 224.467 342.26 224.57C342.394 224.672 342.521 224.782 342.64 224.9C342.76 225.02 342.87 225.14 342.97 225.26C343.058 225.365 343.135 225.479 343.2 225.6L344.05 224.65L342.86 223.22Z" fill="white"/>
<path d="M334.56 221.72C334.395 222.463 334.298 223.22 334.27 223.98C334.428 225.793 335.177 227.503 336.4 228.85C336.654 229.15 336.976 229.383 337.34 229.53C337.52 229.602 337.715 229.625 337.906 229.596C338.098 229.568 338.278 229.49 338.43 229.37C338.705 229.056 338.845 228.647 338.82 228.23C338.888 227.616 338.861 226.996 338.74 226.39C338.615 225.784 338.278 225.241 337.79 224.86C337.409 224.625 336.999 224.44 336.57 224.31C336.153 224.126 335.784 223.849 335.49 223.5L334.56 221.72Z" fill="#F28F8F"/>
<path d="M367.85 199L368.8 197.3L361.12 196.63C359.918 198.217 358.404 199.541 356.67 200.52C354.476 201.749 352.005 202.4 349.49 202.41C348.568 202.484 347.65 202.237 346.89 201.71C346.449 201.279 346.145 200.728 346.013 200.126C345.882 199.523 345.929 198.896 346.15 198.32C346.397 197.592 346.773 196.915 347.26 196.32H345C342.323 198.759 340.226 201.766 338.86 205.12C338.169 206.582 337.827 208.184 337.86 209.8C337.888 210.598 338.107 211.378 338.499 212.073C338.89 212.769 339.443 213.361 340.11 213.8C339.948 215.678 340.012 217.568 340.3 219.43C340.507 221.276 341.382 222.983 342.76 224.23C344.152 225.228 345.778 225.851 347.48 226.04C351.791 226.768 356.2 226.683 360.48 225.79C362.457 225.473 364.329 224.688 365.94 223.5V206.26C365.945 203.716 366.602 201.217 367.85 199Z" fill="#455A64"/>
<path opacity="0.2" d="M357.91 188.29C355.22 193.51 353.54 193.63 349.55 194.09V191.51L357.91 188.29Z" fill="black"/>
<path opacity="0.2" d="M367.85 199L368.8 197.3L361.12 196.63C359.918 198.217 358.404 199.541 356.67 200.52C354.476 201.749 352.005 202.4 349.49 202.41C348.568 202.484 347.65 202.237 346.89 201.71C346.449 201.279 346.145 200.728 346.013 200.126C345.882 199.523 345.929 198.896 346.15 198.32C346.397 197.592 346.773 196.915 347.26 196.32H345C342.323 198.759 340.226 201.766 338.86 205.12C338.169 206.582 337.827 208.184 337.86 209.8C337.888 210.598 338.107 211.378 338.499 212.073C338.89 212.769 339.443 213.361 340.11 213.8C339.948 215.678 340.012 217.568 340.3 219.43C340.507 221.276 341.382 222.983 342.76 224.23C344.152 225.228 345.778 225.851 347.48 226.04C351.791 226.768 356.2 226.683 360.48 225.79C362.457 225.473 364.329 224.688 365.94 223.5V206.26C365.945 203.716 366.602 201.217 367.85 199Z" fill="white"/>
<path d="M341.62 176.21C340.839 180.151 340.791 184.202 341.48 188.16C341.606 189.674 342.27 191.092 343.35 192.16C344.8 193.33 346.88 193.16 348.72 192.92C350.746 192.757 352.739 192.309 354.64 191.59C355.587 191.222 356.446 190.659 357.162 189.937C357.877 189.215 358.431 188.351 358.79 187.4C359.298 187.674 359.882 187.772 360.452 187.68C361.021 187.588 361.544 187.31 361.94 186.89C362.71 186.016 363.124 184.885 363.1 183.72C363.165 183.21 363.098 182.693 362.905 182.216C362.713 181.74 362.401 181.321 362 181C361.684 180.834 361.335 180.741 360.979 180.728C360.623 180.714 360.268 180.779 359.94 180.92C359.286 181.209 358.7 181.631 358.22 182.16C357.985 182.435 357.709 182.671 357.4 182.86C357.248 182.948 357.075 182.994 356.9 182.994C356.724 182.994 356.552 182.948 356.4 182.86C356.24 182.703 356.117 182.511 356.041 182.3C355.965 182.089 355.937 181.863 355.96 181.64C355.991 179.815 355.579 178.011 354.76 176.38C354.331 175.576 353.66 174.927 352.841 174.527C352.022 174.126 351.098 173.994 350.2 174.15C349.446 174.499 348.654 174.761 347.84 174.93C347.173 174.889 346.529 174.675 345.97 174.31C345.583 174.024 345.127 173.846 344.649 173.792C344.171 173.738 343.687 173.811 343.246 174.004C342.805 174.196 342.423 174.502 342.137 174.889C341.852 175.276 341.673 175.732 341.62 176.21Z" fill="#F28F8F"/>
<path d="M347.29 181.11L344.9 185.13L347.75 185.66L347.29 181.11Z" fill="#F28F8F"/>
<path opacity="0.1" d="M347.29 181.11L344.9 185.13L347.75 185.66L347.29 181.11Z" fill="black"/>
<path d="M350.49 187.05L348.33 188.05C348.513 188.298 348.774 188.479 349.07 188.564C349.367 188.649 349.683 188.633 349.97 188.52C350.206 188.367 350.386 188.139 350.48 187.873C350.574 187.608 350.577 187.318 350.49 187.05Z" fill="#F28F8F"/>
<path opacity="0.3" d="M350.49 187.05L348.33 188.05C348.513 188.298 348.774 188.479 349.07 188.564C349.367 188.649 349.683 188.633 349.97 188.52C350.206 188.367 350.386 188.139 350.48 187.873C350.574 187.608 350.577 187.318 350.49 187.05Z" fill="black"/>
<path d="M349.22 188.64C349.471 188.693 349.733 188.669 349.97 188.57C350.168 188.458 350.328 188.29 350.431 188.087C350.534 187.885 350.576 187.656 350.55 187.43C350.216 187.424 349.892 187.546 349.645 187.771C349.397 187.996 349.245 188.307 349.22 188.64Z" fill="#F28F8F"/>
<path opacity="0.1" d="M349.22 188.64C349.471 188.693 349.733 188.669 349.97 188.57C350.168 188.458 350.328 188.29 350.431 188.087C350.534 187.885 350.576 187.656 350.55 187.43C350.216 187.424 349.892 187.546 349.645 187.771C349.397 187.996 349.245 188.307 349.22 188.64Z" fill="black"/>
<path d="M351.41 181.27C351.422 181.377 351.413 181.485 351.383 181.588C351.353 181.691 351.302 181.787 351.234 181.87C351.166 181.953 351.082 182.022 350.986 182.072C350.891 182.121 350.787 182.151 350.68 182.16C350.464 182.183 350.248 182.118 350.079 181.981C349.91 181.845 349.803 181.646 349.78 181.43C349.76 181.213 349.827 180.997 349.966 180.828C350.104 180.66 350.303 180.553 350.52 180.53C350.736 180.511 350.951 180.578 351.118 180.716C351.285 180.855 351.39 181.054 351.41 181.27Z" fill="#263238"/>
<path d="M344.55 181.69C344.567 181.851 344.536 182.014 344.46 182.158C344.384 182.301 344.268 182.419 344.125 182.496C343.983 182.574 343.82 182.607 343.659 182.592C343.497 182.577 343.344 182.515 343.218 182.412C343.092 182.31 342.999 182.173 342.951 182.018C342.903 181.863 342.902 181.697 342.948 181.542C342.995 181.386 343.086 181.248 343.211 181.144C343.336 181.041 343.489 180.977 343.65 180.96C343.866 180.94 344.08 181.006 344.248 181.142C344.417 181.278 344.525 181.475 344.55 181.69Z" fill="#263238"/>
<path d="M343.43 178.53L341.75 180C341.651 179.785 341.619 179.545 341.658 179.311C341.697 179.078 341.806 178.861 341.97 178.69C342.174 178.53 342.419 178.43 342.677 178.402C342.935 178.373 343.196 178.418 343.43 178.53Z" fill="#263238"/>
<path d="M350.39 177.73L352.32 178.8C352.378 178.568 352.362 178.323 352.276 178.1C352.191 177.876 352.038 177.684 351.84 177.55C351.605 177.444 351.346 177.404 351.09 177.436C350.834 177.468 350.592 177.57 350.39 177.73Z" fill="#263238"/>
<path d="M348.93 234.9V234.82V234.76L342.93 223.34H342.88H342.83L342.74 223.26H342.54L335.54 219.26H335.29C335.258 219.249 335.222 219.249 335.19 219.26L334.34 220.26C334.34 220.26 334.26 220.42 334.34 220.61L340.34 232.03C340.676 232.558 341.132 233 341.67 233.32L348.67 237.32C349.03 237.53 349.25 237.53 349.28 237.39C349.28 237.39 349.28 237.39 349.28 237.45L350.13 236.45V236.38L348.93 234.9ZM341.29 223.33L341.48 223.5L341.29 223.33ZM341.73 223.77L341.81 223.86L341.73 223.77ZM348.08 235.85C348.075 235.769 348.051 235.69 348.01 235.62C348.051 235.684 348.078 235.755 348.09 235.83L348.08 235.85Z" fill="#455A64"/>
<path d="M425.19 286.94L427.04 290.85L422.61 295.72L422.93 307.36L437.22 295C437.858 294.442 438.296 293.69 438.468 292.86C438.639 292.029 438.535 291.166 438.17 290.4L433.81 281.34L425.19 286.94Z" fill="#733D3C"/>
<path d="M424.83 287.88C430.51 287.39 434.37 281.51 434.37 281.51C429.3 271.11 424.87 259.51 416.01 262.31L424.83 287.88Z" fill="white"/>
<path opacity="0.1" d="M419.79 273.26L424.79 287.88C426.544 287.693 428.223 287.074 429.68 286.08C427.637 280.972 424.213 276.533 419.79 273.26Z" fill="black"/>
<path d="M402.69 410.1C402.34 410.915 401.762 411.612 401.026 412.107C400.29 412.602 399.427 412.874 398.54 412.89C396.769 412.89 395.005 412.665 393.29 412.22C389.39 411.51 385.64 412.22 381.75 412.12C380.472 412.13 379.197 411.992 377.95 411.71C376.697 411.415 375.563 410.746 374.7 409.79C374.219 409.217 373.899 408.527 373.77 407.79C373.69 408.354 373.732 408.929 373.892 409.476C374.053 410.022 374.328 410.528 374.7 410.96C375.563 411.916 376.697 412.585 377.95 412.88C379.197 413.162 380.472 413.3 381.75 413.29C385.64 413.38 389.39 412.68 393.29 413.39C395.005 413.835 396.769 414.06 398.54 414.06C399.427 414.044 400.29 413.771 401.026 413.277C401.762 412.782 402.34 412.085 402.69 411.27C402.857 410.685 402.904 410.073 402.83 409.47C402.801 409.684 402.754 409.894 402.69 410.1Z" fill="#37474F"/>
<path d="M402.59 406.87L401.87 403.32C401.783 402.688 401.579 402.078 401.27 401.52C401.113 401.243 400.885 401.013 400.609 400.854C400.332 400.696 400.018 400.615 399.7 400.62C397.56 400.33 394.56 399.56 392.78 400.78C389.976 402.696 386.634 403.669 383.24 403.56C381.485 403.347 379.716 403.274 377.95 403.34C376.2 403.56 374.38 404.53 373.86 406.22C373.715 406.72 373.684 407.246 373.77 407.76C373.899 408.497 374.219 409.187 374.7 409.76C375.563 410.716 376.697 411.385 377.95 411.68C379.197 411.962 380.472 412.1 381.75 412.09C385.64 412.18 389.39 411.48 393.29 412.19C395.005 412.635 396.769 412.86 398.54 412.86C399.427 412.844 400.29 412.572 401.026 412.077C401.762 411.582 402.34 410.885 402.69 410.07C402.756 409.855 402.803 409.634 402.83 409.41C402.882 408.556 402.801 407.699 402.59 406.87Z" fill="#455A64"/>
<path d="M392.27 397.07L392.11 401.69C392.093 402.163 392.262 402.624 392.579 402.975C392.896 403.326 393.338 403.539 393.81 403.57C395.357 403.695 396.913 403.695 398.46 403.57C399.087 403.513 399.673 403.232 400.11 402.779C400.548 402.325 400.807 401.729 400.84 401.1L401.02 397.69L392.27 397.07Z" fill="#733D3C"/>
<path d="M422.4 394.62C422.376 395.299 422.161 395.958 421.78 396.52C421.232 397.188 420.455 397.626 419.6 397.75C418.582 397.924 417.536 397.808 416.581 397.416C415.626 397.023 414.801 396.37 414.2 395.53C413.62 394.69 413.29 393.7 412.74 392.84C411.917 391.692 410.902 390.694 409.74 389.89C408.561 389.094 407.526 388.103 406.68 386.96C406.28 386.403 406.019 385.759 405.918 385.08C405.817 384.402 405.879 383.709 406.1 383.06C405.988 383.214 405.891 383.378 405.81 383.55C405.555 384.236 405.472 384.973 405.568 385.698C405.664 386.424 405.936 387.114 406.36 387.71C407.227 388.876 408.281 389.89 409.48 390.71C410.673 391.528 411.718 392.542 412.57 393.71C413.13 394.6 413.47 395.62 414.06 396.48C414.666 397.346 415.506 398.022 416.481 398.429C417.457 398.836 418.528 398.958 419.57 398.78C420.445 398.649 421.24 398.196 421.8 397.51C422.294 396.719 422.518 395.789 422.44 394.86C422.41 394.81 422.4 394.72 422.4 394.62Z" fill="#37474F"/>
<path d="M421 388.83C419.59 386.37 416.7 384.58 414.47 382.83C413.25 381.76 411.746 381.066 410.14 380.83C409.344 380.733 408.536 380.877 407.823 381.244C407.11 381.612 406.523 382.185 406.14 382.89C406.14 382.89 406.14 382.98 406.09 383.02C405.87 383.669 405.807 384.362 405.908 385.04C406.009 385.719 406.27 386.363 406.67 386.92C407.517 388.063 408.551 389.054 409.73 389.85C410.892 390.654 411.907 391.652 412.73 392.8C413.28 393.66 413.61 394.65 414.19 395.49C414.791 396.33 415.616 396.983 416.571 397.376C417.526 397.768 418.572 397.884 419.59 397.71C420.445 397.587 421.222 397.148 421.77 396.48C422.151 395.918 422.366 395.259 422.39 394.58C422.39 394.36 422.39 394.13 422.39 393.91C422.353 392.128 421.875 390.383 421 388.83Z" fill="#455A64"/>
<path d="M414.91 386.69V390.89C415.94 391.377 417.073 391.605 418.211 391.554C419.349 391.504 420.457 391.176 421.44 390.6L421.83 386.83L414.91 386.69Z" fill="#733D3C"/>
<path d="M422.93 310.6C424.19 314.38 422.65 332.31 421.93 349.5C424.66 356 423.93 374.45 422.35 387.56C422.35 387.56 419.63 389.24 414.7 387.56L408.51 351.39L407.65 330.94C407.65 330.94 406.1 349.08 404.32 360.72C406 369.63 405.58 371.31 401.44 398.72C400 399.443 398.411 399.82 396.8 399.82C395.189 399.82 393.6 399.443 392.16 398.72C389.81 360.21 390.68 325.11 391.16 312.49L422.93 310.6Z" fill="#37474F"/>
<path opacity="0.3" d="M408.16 343.39L407.46 326.72C411.77 326.72 415.76 323.5 418.8 320.45C416.762 323.761 413.771 326.379 410.22 327.96L408.16 343.39Z" fill="black"/>
<path d="M390.44 280.86V313.51C409.67 321.57 422.13 314.29 423.82 310.51C422.93 297.21 426.08 281.67 425.82 275.06C425.56 268.45 424.77 261.01 414.53 262.51L403.64 263.57L398.11 264.91L390.44 280.86Z" fill="white"/>
<path opacity="0.1" d="M390.44 285.07L398.32 276.4C397.043 282.355 394.339 287.911 390.44 292.59V285.07Z" fill="black"/>
<path d="M380.24 279.09L376.57 282.91L367.77 271.25C368.957 268.15 369.682 264.892 369.92 261.58C369.933 261.441 369.916 261.302 369.871 261.17C369.827 261.038 369.755 260.917 369.661 260.814C369.567 260.712 369.452 260.63 369.325 260.574C369.197 260.518 369.059 260.49 368.92 260.49C368.723 260.485 368.528 260.538 368.361 260.643C368.193 260.748 368.061 260.9 367.98 261.08L366.35 264.51C366.117 264.433 365.905 264.302 365.732 264.128C365.558 263.955 365.428 263.743 365.35 263.51L365.03 262.6C364.814 261.997 364.706 261.361 364.71 260.72V258.46C364.707 258.146 364.622 257.838 364.465 257.567C364.308 257.295 364.083 257.068 363.812 256.909C363.541 256.75 363.234 256.664 362.92 256.659C362.606 256.654 362.296 256.73 362.02 256.88C360.997 257.431 360.093 258.179 359.36 259.08C358.654 259.939 358.268 261.018 358.27 262.13V265.18C358.27 265.962 358.409 266.737 358.68 267.47L360.27 271.84C360.409 272.242 360.59 272.627 360.81 272.99L372.16 291.99C372.568 292.672 373.122 293.256 373.782 293.7C374.442 294.144 375.191 294.437 375.977 294.558C376.763 294.679 377.565 294.626 378.328 294.402C379.091 294.177 379.795 293.788 380.39 293.26L387.62 286.84L380.24 279.09Z" fill="#8C5554"/>
<path d="M374.32 287.59C374.684 285.872 375.455 284.267 376.57 282.91L375.57 281.56C374.79 283 373.71 285.72 374.32 287.59Z" fill="#733D3C"/>
<path d="M379.33 279.11L389.66 269C391.951 266.732 394.937 265.299 398.14 264.93H398.33C402.7 274.51 396.92 279.18 396.92 279.18L387.32 288C383.689 286.075 380.858 282.925 379.33 279.11Z" fill="white"/>
<path d="M398.42 241.14C398.218 240.911 398.089 240.627 398.05 240.324C398.01 240.021 398.063 239.713 398.2 239.44C397.929 239.518 397.645 239.538 397.365 239.498C397.086 239.459 396.819 239.36 396.58 239.21C396.345 239.067 396.154 238.861 396.028 238.615C395.903 238.37 395.848 238.095 395.87 237.82C395.895 237.553 396.007 237.302 396.187 237.104C396.367 236.905 396.607 236.771 396.87 236.72C396.364 236.603 395.921 236.299 395.63 235.87C395.317 235.456 395.177 234.936 395.24 234.42C395.337 233.954 395.557 233.523 395.877 233.172C396.197 232.82 396.606 232.56 397.06 232.42C397.983 232.155 398.954 232.104 399.9 232.27C399.752 231.752 399.791 231.199 400.01 230.707C400.23 230.215 400.616 229.816 401.1 229.58C401.535 229.429 402.001 229.39 402.455 229.465C402.909 229.54 403.337 229.727 403.7 230.01C404.426 230.566 405.052 231.243 405.55 232.01C406.586 231.446 407.733 231.115 408.91 231.04C410.088 230.965 411.267 231.149 412.366 231.577C413.465 232.006 414.457 232.67 415.273 233.522C416.089 234.374 416.709 235.393 417.09 236.51C417.954 236.792 418.736 237.282 419.366 237.938C419.995 238.594 420.454 239.395 420.7 240.27C421.143 242.02 421.035 243.864 420.39 245.55C419.752 247.226 418.923 248.823 417.92 250.31C417.47 251.04 417.02 251.75 416.56 252.47C415.99 253.38 414.56 255.62 413.96 256.47C412.697 257.053 411.31 257.315 409.921 257.233C408.532 257.151 407.186 256.728 406 256C403.657 254.44 401.849 252.199 400.82 249.58C399.747 246.852 398.943 244.025 398.42 241.14Z" fill="#263238"/>
<path d="M397.18 246.74L395.46 249.74L397.16 250.36C397.101 249.154 397.108 247.945 397.18 246.74Z" fill="#733D3C"/>
<path d="M398.42 241.14C397.786 242.951 397.37 244.831 397.18 246.74C397.115 247.943 397.115 249.148 397.18 250.35C397.251 252.049 397.449 253.74 397.77 255.41C397.882 256.325 398.226 257.196 398.77 257.94C399.487 258.71 400.479 259.166 401.53 259.21C402.569 259.244 403.607 259.144 404.62 258.91V263.82C408.34 264.7 411.42 265.08 414.34 262.82L414.03 256.51C412.24 256.766 410.414 256.477 408.79 255.68C406.22 254.3 405.5 252.08 405.86 250.84C406.088 251.141 406.398 251.369 406.754 251.495C407.109 251.621 407.494 251.64 407.86 251.55C408.215 251.455 408.546 251.288 408.834 251.059C409.121 250.83 409.358 250.545 409.53 250.22C409.875 249.576 410.086 248.868 410.15 248.14C410.337 247.259 410.202 246.34 409.77 245.55C409.445 245.107 408.992 244.774 408.472 244.595C407.951 244.416 407.389 244.401 406.86 244.55C405.811 244.866 404.93 245.586 404.41 246.55C404.241 246.851 404.097 247.165 403.98 247.49C403.938 247.619 403.852 247.728 403.737 247.8C403.623 247.872 403.487 247.901 403.353 247.884C403.219 247.866 403.095 247.802 403.004 247.703C402.912 247.603 402.857 247.475 402.85 247.34C402.717 245.931 402.973 244.513 403.59 243.24C403.16 243.45 402.688 243.559 402.21 243.56C401.96 243.559 401.713 243.503 401.486 243.396C401.26 243.289 401.06 243.133 400.9 242.94C400.743 242.745 400.653 242.504 400.644 242.253C400.635 242.003 400.707 241.756 400.85 241.55C400.448 241.721 400.006 241.773 399.575 241.7C399.145 241.627 398.744 241.433 398.42 241.14Z" fill="#8C5554"/>
<path d="M310.07 413.47C309.659 414.072 309.123 414.579 308.498 414.955C307.873 415.331 307.175 415.568 306.45 415.65C304.777 415.797 303.091 415.689 301.45 415.33C298.995 414.992 296.509 414.928 294.04 415.14C292.512 415.345 290.972 415.455 289.43 415.47C287.877 415.491 286.358 415.011 285.1 414.1C284.23 413.417 283.648 412.432 283.47 411.34C283.4 412.048 283.513 412.762 283.799 413.413C284.084 414.065 284.532 414.632 285.1 415.06C286.36 415.969 287.877 416.453 289.43 416.44C290.972 416.42 292.511 416.31 294.04 416.11C296.509 415.893 298.995 415.957 301.45 416.3C303.113 416.691 304.825 416.836 306.53 416.73C307.254 416.652 307.953 416.416 308.576 416.039C309.2 415.663 309.733 415.154 310.14 414.55L310.07 413.47Z" fill="#455A64"/>
<path d="M292.09 410.54C293.47 410.54 292.96 408.49 294.28 407.12C293.74 407.12 293.2 407.12 292.67 407.12C291.48 408.86 291.15 410.54 292.09 410.54Z" fill="white"/>
<path d="M295 410.43C296.39 410.43 296 407.99 297.39 406.57C297.063 406.682 296.729 406.772 296.39 406.84C296.12 406.9 295.85 406.95 295.57 406.99C294.36 408.71 294 410.43 295 410.43Z" fill="white"/>
<path d="M308.64 405.76C308.549 405.307 308.292 404.904 307.92 404.63L300.45 404.44C299.652 405.443 298.572 406.185 297.35 406.57C295.98 407.99 296.35 410.43 294.96 410.43C294.01 410.43 294.36 408.71 295.58 406.99C295.15 407.05 294.71 407.1 294.28 407.12C292.96 408.49 293.47 410.54 292.09 410.54C291.15 410.54 291.48 408.86 292.67 407.16H291.62H290.62C287.88 409.33 287.62 411.69 288 415.38C288.472 415.47 288.95 415.52 289.43 415.53C290.972 415.515 292.511 415.405 294.04 415.2C296.509 414.988 298.995 415.052 301.45 415.39C303.091 415.749 304.777 415.857 306.45 415.71C307.175 415.629 307.873 415.392 308.498 415.015C309.123 414.639 309.659 414.133 310.07 413.53L308.64 405.76Z" fill="#455A64"/>
<path d="M290.66 407.1C289.425 406.895 288.165 406.895 286.93 407.1C286.162 407.248 285.448 407.596 284.858 408.108C284.268 408.621 283.823 409.281 283.57 410.02C283.465 410.452 283.445 410.9 283.51 411.34C283.688 412.432 284.27 413.417 285.14 414.1C285.989 414.744 286.986 415.163 288.04 415.32C287.68 411.63 287.92 409.27 290.66 407.1Z" fill="white"/>
<path d="M300.24 402.32V405.91C300.24 406.303 300.396 406.679 300.673 406.957C300.951 407.234 301.327 407.39 301.72 407.39H305.48C306.109 407.391 306.714 407.147 307.167 406.71C307.62 406.274 307.887 405.679 307.91 405.05L308 402.32H300.24Z" fill="#FFA8A7"/>
<path d="M325.13 400.72C324.922 401.158 324.603 401.534 324.205 401.811C323.807 402.088 323.343 402.257 322.86 402.3C321.854 402.371 320.85 402.127 319.99 401.6C318.7 400.77 318.19 399.48 317.31 398.31C316.384 397.183 315.338 396.16 314.19 395.26C312.944 394.346 311.918 393.163 311.19 391.8C311.013 391.396 310.895 390.968 310.84 390.53C310.725 391.36 310.846 392.206 311.19 392.97C311.918 394.333 312.944 395.516 314.19 396.43C315.338 397.33 316.384 398.353 317.31 399.48C318.19 400.65 318.7 401.94 319.99 402.76C320.847 403.295 321.852 403.543 322.86 403.47C323.344 403.427 323.809 403.257 324.207 402.978C324.606 402.699 324.924 402.32 325.13 401.88C325.281 401.225 325.325 400.549 325.26 399.88C325.269 400.166 325.224 400.45 325.13 400.72Z" fill="#455A64"/>
<path d="M316.64 392.82C316.509 392.995 316.445 393.212 316.46 393.43C316.482 393.537 316.531 393.637 316.603 393.72C316.675 393.802 316.767 393.864 316.87 393.9C317.017 393.936 317.171 393.935 317.318 393.897C317.465 393.858 317.599 393.784 317.71 393.68C317.922 393.467 318.116 393.236 318.29 392.99C318.788 392.353 319.453 391.865 320.21 391.58C320.581 391.447 320.967 391.363 321.36 391.33L320.43 390.48C319.838 390.509 319.258 390.652 318.72 390.9C317.846 391.312 317.12 391.982 316.64 392.82Z" fill="white"/>
<path d="M316.84 389.85C315.962 390.255 315.234 390.927 314.76 391.77C314.626 391.944 314.562 392.161 314.58 392.38C314.602 392.486 314.65 392.584 314.72 392.666C314.789 392.749 314.879 392.812 314.98 392.85C315.127 392.889 315.282 392.889 315.429 392.851C315.576 392.812 315.711 392.736 315.82 392.63C316.043 392.424 316.241 392.192 316.41 391.94C316.906 391.303 317.572 390.818 318.33 390.54C318.932 390.313 319.579 390.227 320.22 390.29L319.29 389.44C318.451 389.354 317.605 389.496 316.84 389.85Z" fill="white"/>
<path d="M318.7 388.91C317.854 388.069 316.861 387.391 315.77 386.91C315.115 386.632 314.397 386.537 313.692 386.635C312.988 386.734 312.323 387.023 311.77 387.47C311.398 387.866 311.124 388.344 310.97 388.865C310.815 389.386 310.785 389.935 310.88 390.47C310.935 390.908 311.053 391.336 311.23 391.74C311.474 392.269 311.787 392.763 312.16 393.21C312.49 390.05 315.28 388.55 318.7 388.91Z" fill="white"/>
<path d="M325.2 397.56C325.22 396.469 324.969 395.39 324.47 394.42L322.66 392.51L321.36 391.33C320.967 391.363 320.581 391.447 320.21 391.58C319.452 391.865 318.788 392.352 318.29 392.99C318.116 393.236 317.922 393.467 317.71 393.68C317.599 393.784 317.465 393.858 317.318 393.897C317.171 393.935 317.017 393.936 316.87 393.9C316.767 393.864 316.675 393.802 316.603 393.719C316.531 393.637 316.482 393.537 316.46 393.43C316.445 393.212 316.509 392.995 316.64 392.82C317.12 391.982 317.846 391.312 318.72 390.9C319.258 390.652 319.838 390.509 320.43 390.48L320.22 390.29C319.579 390.227 318.932 390.313 318.33 390.54C317.572 390.818 316.906 391.303 316.41 391.94C316.241 392.192 316.043 392.424 315.82 392.63C315.711 392.736 315.576 392.812 315.429 392.851C315.282 392.889 315.127 392.889 314.98 392.85C314.879 392.812 314.789 392.749 314.72 392.666C314.65 392.584 314.602 392.486 314.58 392.38C314.562 392.161 314.626 391.944 314.76 391.77C315.234 390.927 315.962 390.256 316.84 389.85C317.605 389.496 318.451 389.355 319.29 389.44L318.73 388.94C315.31 388.58 312.52 390.08 312.16 393.3C312.783 394.029 313.473 394.698 314.22 395.3C315.368 396.2 316.414 397.223 317.34 398.35C318.22 399.52 318.73 400.81 320.02 401.64C320.88 402.167 321.884 402.412 322.89 402.34C323.373 402.297 323.836 402.128 324.234 401.851C324.633 401.574 324.952 401.198 325.16 400.76C325.254 400.49 325.298 400.206 325.29 399.92C325.304 399.132 325.274 398.344 325.2 397.56Z" fill="#455A64"/>
<path d="M318.65 391.87L318.86 395.73C319.746 396.29 320.782 396.566 321.829 396.521C322.876 396.476 323.885 396.113 324.72 395.48L324.88 391.87H318.65Z" fill="#FFA8A7"/>
<path d="M323.45 308.39C323.241 307.975 323.116 307.523 323.08 307.06L322.87 303.75L299.26 305.27C298.94 306.92 298.63 308.95 298.32 311.27C306.763 313.468 315.723 312.442 323.45 308.39Z" fill="#FF9192"/>
<path d="M323 295L328 304.72L323.43 312.37L328.48 320.37L336.11 308.52C336.625 307.718 336.961 306.814 337.096 305.87C337.231 304.926 337.16 303.964 336.89 303.05C335.573 298.431 333.901 293.921 331.89 289.56L323 295Z" fill="#FFA8A7"/>
<path d="M319 276.25C324.79 275.17 328.1 277.1 333 290.2C331 294.68 322.53 296.33 322.53 296.33L319 276.25Z" fill="#FFBF4C"/>
<path opacity="0.4" d="M319 276.25C324.79 275.17 328.1 277.1 333 290.2C331 294.68 322.53 296.33 322.53 296.33L319 276.25Z" fill="white"/>
<path d="M299.45 262.64L297.5 266.03L299.64 266.82L299.45 262.64Z" fill="#FF9192"/>
<path d="M299.23 261.13C299.54 258.13 300.42 255.35 302.35 253.93C301.834 257.628 302.622 261.391 304.58 264.57C304.764 263.583 305.262 262.681 306 262C306.294 261.685 306.665 261.452 307.076 261.324C307.488 261.197 307.926 261.179 308.347 261.273C308.767 261.367 309.156 261.569 309.474 261.86C309.792 262.151 310.029 262.52 310.16 262.93C310.424 263.571 310.497 264.275 310.37 264.957C310.243 265.638 309.923 266.269 309.446 266.773C308.97 267.276 308.358 267.632 307.685 267.796C307.012 267.961 306.305 267.928 305.65 267.7C305.924 269.019 306.572 270.231 307.518 271.191C308.463 272.15 309.665 272.817 310.98 273.11C312.718 273.461 314.521 273.287 316.16 272.61L316.96 276.61C313.7 280.1 308.12 277.76 308.12 277.76L307.38 273.76C300.96 274.14 300.38 274.03 299.66 270.5C299.093 267.411 298.948 264.259 299.23 261.13Z" fill="#FFA8A7"/>
<path d="M298.47 254C299.048 252.694 299.89 251.523 300.943 250.559C301.997 249.595 303.238 248.86 304.59 248.4C307.308 247.498 310.207 247.278 313.03 247.76C314.769 247.962 316.461 248.463 318.03 249.24C319.629 250.056 320.93 251.354 321.75 252.95L322.08 250.21C322.421 250.283 322.737 250.445 322.997 250.678C323.257 250.911 323.451 251.209 323.56 251.54C323.65 251.889 323.651 252.254 323.564 252.604C323.477 252.953 323.303 253.275 323.06 253.54H323.31C324.442 253.54 325.563 253.763 326.609 254.196C327.655 254.629 328.605 255.264 329.405 256.065C330.206 256.865 330.841 257.816 331.274 258.861C331.707 259.907 331.93 261.028 331.93 262.16V276.78C329.686 276.78 327.534 275.889 325.948 274.302C324.361 272.716 323.47 270.564 323.47 268.32V265C322.409 267.492 320.734 269.673 318.6 271.34C317.847 271.886 317.027 272.333 316.16 272.67C314.521 273.347 312.718 273.521 310.98 273.17C309.665 272.877 308.463 272.21 307.518 271.251C306.572 270.291 305.924 269.079 305.65 267.76C306.305 267.987 307.012 268.021 307.685 267.856C308.358 267.692 308.97 267.336 309.446 266.832C309.923 266.329 310.243 265.698 310.37 265.017C310.497 264.335 310.424 263.631 310.16 262.99C310.036 262.575 309.805 262.2 309.49 261.903C309.175 261.605 308.787 261.396 308.365 261.295C307.944 261.195 307.504 261.207 307.088 261.331C306.673 261.455 306.298 261.686 306 262C305.255 262.672 304.746 263.566 304.55 264.55C302.592 261.371 301.804 257.608 302.32 253.91C300.39 255.33 299.51 258.13 299.2 261.11C298.504 260.076 298.073 258.886 297.946 257.646C297.818 256.406 297.998 255.154 298.47 254Z" fill="#FFBF4C"/>
<path opacity="0.4" d="M298.47 254C299.048 252.694 299.89 251.523 300.943 250.559C301.997 249.595 303.238 248.86 304.59 248.4C307.308 247.498 310.207 247.278 313.03 247.76C314.769 247.962 316.461 248.463 318.03 249.24C319.629 250.056 320.93 251.354 321.75 252.95L322.08 250.21C322.421 250.283 322.737 250.445 322.997 250.678C323.257 250.911 323.451 251.209 323.56 251.54C323.65 251.889 323.651 252.254 323.564 252.604C323.477 252.953 323.303 253.275 323.06 253.54H323.31C324.442 253.54 325.563 253.763 326.609 254.196C327.655 254.629 328.605 255.264 329.405 256.065C330.206 256.865 330.841 257.816 331.274 258.861C331.707 259.907 331.93 261.028 331.93 262.16V276.78C329.686 276.78 327.534 275.889 325.948 274.302C324.361 272.716 323.47 270.564 323.47 268.32V265C322.409 267.492 320.734 269.673 318.6 271.34C317.847 271.886 317.027 272.333 316.16 272.67C314.521 273.347 312.718 273.521 310.98 273.17C309.665 272.877 308.463 272.21 307.518 271.251C306.572 270.291 305.924 269.079 305.65 267.76C306.305 267.987 307.012 268.021 307.685 267.856C308.358 267.692 308.97 267.336 309.446 266.832C309.923 266.329 310.243 265.698 310.37 265.017C310.497 264.335 310.424 263.631 310.16 262.99C310.036 262.575 309.805 262.2 309.49 261.903C309.175 261.605 308.787 261.396 308.365 261.295C307.944 261.195 307.504 261.207 307.088 261.331C306.673 261.455 306.298 261.686 306 262C305.255 262.672 304.746 263.566 304.55 264.55C302.592 261.371 301.804 257.608 302.32 253.91C300.39 255.33 299.51 258.13 299.2 261.11C298.504 260.076 298.073 258.886 297.946 257.646C297.818 256.406 297.998 255.154 298.47 254Z" fill="black"/>
<path d="M308.15 277.79L301.83 279C300.43 281.56 299.01 284 297.61 286.51C296.56 288.44 295.48 290.51 295.56 292.68C295.618 293.85 296.003 294.98 296.671 295.941C297.34 296.903 298.264 297.658 299.34 298.12L298.61 306.75C308.54 309.75 320.67 307.12 323.33 304.82C324.12 301.21 324.81 297.36 325.59 293.74C326.18 291.408 326.538 289.023 326.66 286.62C326.783 284.205 326.206 281.806 325 279.71V279.65C324.168 278.403 322.992 277.425 321.614 276.834C320.237 276.243 318.717 276.064 317.24 276.32L308.15 277.79Z" fill="#FFBF4C"/>
<path opacity="0.1" d="M308.15 277.79L301.83 279C300.43 281.56 299.01 284 297.61 286.51C296.56 288.44 295.48 290.51 295.56 292.68C295.618 293.85 296.003 294.98 296.671 295.941C297.34 296.903 298.264 297.658 299.34 298.12L298.61 306.75C308.54 309.75 320.67 307.12 323.33 304.82C324.12 301.21 324.81 297.36 325.59 293.74C326.18 291.408 326.538 289.023 326.66 286.62C326.783 284.205 326.206 281.806 325 279.71V279.65C324.168 278.403 322.992 277.425 321.614 276.834C320.237 276.243 318.717 276.064 317.24 276.32L308.15 277.79Z" fill="black"/>
<path d="M323.82 309C323.676 308.81 323.552 308.606 323.45 308.39C315.72 312.435 306.761 313.455 298.32 311.25C296.54 324.5 295.01 346.94 295.95 361.74C296.73 378.97 299.9 403.37 299.9 403.37C304.03 404.61 307.14 403.85 308.31 402.96C309.69 385.86 312.72 374.15 310.38 362.84C311.94 354.94 313 345 313 345L314.19 362.47L318.24 393.16C319.376 393.743 320.645 394.016 321.92 393.951C323.195 393.886 324.43 393.485 325.5 392.79C328.44 375.24 329.5 363.35 326.97 354.63C330.84 325.84 331 318.47 323.82 309Z" fill="#FFBF4C"/>
<path opacity="0.5" d="M323.82 309C323.676 308.81 323.552 308.606 323.45 308.39C315.72 312.435 306.761 313.455 298.32 311.25C296.54 324.5 295.01 346.94 295.95 361.74C296.73 378.97 299.9 403.37 299.9 403.37C304.03 404.61 307.14 403.85 308.31 402.96C309.69 385.86 312.72 374.15 310.38 362.84C311.94 354.94 313 345 313 345L314.19 362.47L318.24 393.16C319.376 393.743 320.645 394.016 321.92 393.951C323.195 393.886 324.43 393.485 325.5 392.79C328.44 375.24 329.5 363.35 326.97 354.63C330.84 325.84 331 318.47 323.82 309Z" fill="black"/>
<path opacity="0.3" d="M314.69 341.56L316.85 332.47C318.581 332.186 320.235 331.547 321.708 330.594C323.181 329.641 324.442 328.393 325.41 326.93C322.414 329.281 318.728 330.582 314.92 330.63L313 345L313.42 351.15L313.59 348.91C313.762 346.435 314.13 343.977 314.69 341.56Z" fill="black"/>
<path d="M285.29 279.63C282 279.588 278.721 279.23 275.5 278.56C275.5 278.56 267.78 269.66 265.5 265.7C266.03 263.58 266.58 261.5 267.11 259.39C267.298 258.671 267.253 257.911 266.98 257.22C266.612 256.26 266.143 255.341 265.58 254.48C265.226 253.905 264.759 253.407 264.207 253.016C263.656 252.626 263.031 252.352 262.37 252.21C261.705 252.086 261.017 252.183 260.412 252.487C259.807 252.79 259.318 253.283 259.02 253.89C258.876 254.323 258.82 254.781 258.856 255.236C258.892 255.692 259.019 256.135 259.23 256.54C259.656 257.346 260.191 258.09 260.82 258.75C260.203 259.913 259.87 261.205 259.849 262.521C259.828 263.837 260.12 265.139 260.7 266.32L267.47 283.84C267.878 284.897 268.553 285.83 269.43 286.549C270.306 287.268 271.353 287.747 272.47 287.94L283.35 289.84C284.52 288.57 288 287.29 288.35 285.6C288.81 283.72 286 281.43 285.29 279.63Z" fill="#FFA8A7"/>
<path d="M300.84 278.91C296.93 279.1 291.06 279.75 285.29 279.63C285.983 281.337 286.171 283.207 285.83 285.017C285.49 286.828 284.636 288.502 283.37 289.84L297 292.21C298.431 292.437 299.896 292.123 301.107 291.327C302.318 290.532 303.189 289.314 303.55 287.91C303.98 286.19 304.43 284.75 304.69 283.08C304.767 282.542 304.723 281.994 304.561 281.475C304.4 280.956 304.124 280.48 303.756 280.08C303.387 279.681 302.934 279.369 302.43 279.166C301.926 278.964 301.382 278.876 300.84 278.91Z" fill="#FFBF4C"/>
<path opacity="0.4" d="M300.84 278.91C296.93 279.1 291.06 279.75 285.29 279.63C285.983 281.337 286.171 283.207 285.83 285.017C285.49 286.828 284.636 288.502 283.37 289.84L297 292.21C298.431 292.437 299.896 292.123 301.107 291.327C302.318 290.532 303.189 289.314 303.55 287.91C303.98 286.19 304.43 284.75 304.69 283.08C304.767 282.542 304.723 281.994 304.561 281.475C304.4 280.956 304.124 280.48 303.756 280.08C303.387 279.681 302.934 279.369 302.43 279.166C301.926 278.964 301.382 278.876 300.84 278.91Z" fill="white"/>
<path d="M245.82 321.06L247.67 324.96L243.24 329.84L243.56 341.48L257.85 329.07C258.488 328.514 258.926 327.763 259.096 326.934C259.266 326.104 259.158 325.242 258.79 324.48L254.44 315.42L245.82 321.06Z" fill="#FFBEA7"/>
<path d="M250.22 328.45C249.099 327.511 248.224 326.313 247.67 324.96L246.57 326.18C247.44 327.388 248.752 328.204 250.22 328.45Z" fill="#E39D84"/>
<path d="M245.46 322C251.13 321.5 255 315.62 255 315.62C249.92 305.23 245.49 293.67 236.63 296.43L245.46 322Z" fill="#FFBF4C"/>
<path opacity="0.2" d="M245.46 322C251.13 321.5 255 315.62 255 315.62C249.92 305.23 245.49 293.67 236.63 296.43L245.46 322Z" fill="black"/>
<path d="M223.32 444.21C222.971 445.026 222.394 445.723 221.657 446.218C220.921 446.713 220.057 446.985 219.17 447C217.398 447.006 215.633 446.78 213.92 446.33C210.02 445.62 206.26 446.33 202.37 446.23C201.095 446.239 199.823 446.102 198.58 445.82C197.326 445.532 196.192 444.865 195.33 443.91C194.849 443.337 194.528 442.647 194.4 441.91C194.319 442.476 194.36 443.052 194.52 443.601C194.681 444.149 194.957 444.657 195.33 445.09C196.192 446.045 197.326 446.712 198.58 447C199.823 447.282 201.095 447.419 202.37 447.41C206.26 447.5 210.02 446.8 213.92 447.51C215.633 447.961 217.398 448.186 219.17 448.18C220.057 448.165 220.921 447.893 221.657 447.398C222.394 446.903 222.971 446.206 223.32 445.39C223.483 444.805 223.528 444.193 223.45 443.59C223.428 443.8 223.385 444.008 223.32 444.21Z" fill="#455A64"/>
<path d="M223.22 441L222.5 437.46C222.41 436.826 222.206 436.213 221.9 435.65C221.741 435.372 221.511 435.143 221.233 434.984C220.955 434.826 220.64 434.745 220.32 434.75C218.19 434.47 215.19 433.7 213.41 434.92C210.604 436.839 207.257 437.81 203.86 437.69C202.109 437.475 200.343 437.405 198.58 437.48C196.83 437.69 195.01 438.67 194.49 440.35C194.336 440.848 194.305 441.377 194.4 441.89C194.528 442.627 194.849 443.317 195.33 443.89C196.192 444.845 197.326 445.512 198.58 445.8C199.823 446.082 201.095 446.219 202.37 446.21C206.26 446.3 210.02 445.6 213.92 446.31C215.633 446.761 217.398 446.986 219.17 446.98C220.057 446.965 220.921 446.693 221.657 446.198C222.394 445.703 222.971 445.006 223.32 444.19C223.387 443.975 223.431 443.754 223.45 443.53C223.503 442.68 223.426 441.827 223.22 441Z" fill="#455A64"/>
<path d="M212.89 431.19L212.74 435.8C212.726 436.273 212.894 436.734 213.211 437.086C213.528 437.438 213.968 437.654 214.44 437.69C215.989 437.799 217.544 437.782 219.09 437.64C219.717 437.581 220.301 437.3 220.738 436.846C221.175 436.393 221.434 435.798 221.47 435.17L221.65 431.76L212.89 431.19Z" fill="#FFA8A7"/>
<path d="M243 428.73C242.984 429.412 242.773 430.075 242.39 430.64C241.841 431.305 241.064 431.74 240.21 431.86C239.191 432.035 238.143 431.919 237.186 431.527C236.229 431.134 235.403 430.48 234.8 429.64C234.22 428.8 233.89 427.81 233.34 426.95C232.519 425.8 231.504 424.801 230.34 424C229.169 423.202 228.138 422.215 227.29 421.08C226.89 420.521 226.629 419.875 226.528 419.195C226.427 418.515 226.489 417.821 226.71 417.17C226.6 417.325 226.503 417.489 226.42 417.66C226.16 418.345 226.074 419.083 226.17 419.809C226.266 420.535 226.541 421.226 226.97 421.82C227.834 422.985 228.885 423.999 230.08 424.82C231.281 425.631 232.33 426.646 233.18 427.82C233.74 428.71 234.07 429.73 234.67 430.6C235.278 431.464 236.118 432.138 237.093 432.543C238.069 432.949 239.139 433.069 240.18 432.89C241.051 432.762 241.843 432.312 242.4 431.63C242.878 430.841 243.088 429.918 243 429C243 428.93 243 428.83 243 428.73Z" fill="#455A64"/>
<path d="M241.62 422.94C240.22 420.48 237.33 418.69 235.1 416.94C233.881 415.867 232.377 415.172 230.77 414.94C229.975 414.85 229.172 414.996 228.46 415.361C227.749 415.726 227.161 416.292 226.77 416.99C226.767 417.033 226.767 417.077 226.77 417.12C226.549 417.771 226.487 418.465 226.588 419.145C226.689 419.825 226.95 420.471 227.35 421.03C228.198 422.165 229.229 423.152 230.4 423.95C231.564 424.751 232.579 425.75 233.4 426.9C233.95 427.76 234.28 428.75 234.86 429.59C235.463 430.43 236.289 431.084 237.246 431.477C238.203 431.869 239.251 431.985 240.27 431.81C241.124 431.69 241.901 431.255 242.45 430.59C242.833 430.025 243.044 429.362 243.06 428.68C243.06 428.46 243.06 428.24 243.06 428.02C243.006 426.234 242.512 424.489 241.62 422.94Z" fill="#455A64"/>
<path d="M235.54 420.81V425C236.57 425.487 237.703 425.715 238.841 425.664C239.979 425.614 241.087 425.286 242.07 424.71L242.46 420.94L235.54 420.81Z" fill="#FFA8A7"/>
<path d="M243.56 344.72C244.82 348.49 243.27 366.42 242.56 383.61C245.28 390.11 244.56 408.61 242.98 421.67C242.98 421.67 240.25 423.35 235.32 421.67L229.14 385.5L228.28 365.06C228.28 365.06 226.73 383.19 224.95 394.83C226.62 403.74 226.2 405.42 222.06 432.83C220.62 433.554 219.031 433.931 217.42 433.931C215.809 433.931 214.22 433.554 212.78 432.83C210.44 394.32 211.3 359.23 211.78 346.61L243.56 344.72Z" fill="#455A64"/>
<path opacity="0.3" d="M228.78 377.51L228.08 360.83C232.39 360.83 236.39 357.61 239.43 354.56C237.392 357.871 234.401 360.489 230.85 362.07L228.78 377.51Z" fill="black"/>
<path d="M211.07 315V347.66C230.3 355.71 242.75 348.44 244.45 344.66C243.56 331.37 246.7 315.82 246.45 309.21C246.2 302.6 245.4 295.21 235.16 296.66L224.26 297.72L218.75 299L211.07 315Z" fill="#FFBF4C"/>
<path d="M178 292.66L177.49 295.24C177.311 296.124 177.339 297.038 177.57 297.91L179.92 306.63L190.86 327.41C191.273 328.198 191.86 328.881 192.577 329.408C193.293 329.935 194.121 330.292 194.996 330.452C195.871 330.612 196.771 330.571 197.627 330.331C198.484 330.092 199.275 329.66 199.94 329.07L207.29 322.55L199.44 314.22L195.52 318.3L185.4 304.89L187.29 301.56C187.734 300.773 187.926 299.869 187.84 298.97L187.59 296.21C187.559 295.986 187.454 295.779 187.29 295.623C187.127 295.467 186.915 295.37 186.69 295.35C186.46 295.344 186.235 295.417 186.053 295.557C185.871 295.697 185.743 295.896 185.69 296.12L185.24 298.52C185.18 298.85 185.031 299.158 184.81 299.41C184.643 299.599 184.44 299.752 184.212 299.861C183.984 299.969 183.737 300.031 183.485 300.042C183.234 300.054 182.982 300.014 182.746 299.926C182.509 299.838 182.293 299.703 182.11 299.53L180.29 297.8L178 292.66Z" fill="#FFBEA7"/>
<path d="M193.09 323.31C193.484 321.477 194.306 319.763 195.49 318.31L194.41 316.88C193.6 318.38 192.45 321.31 193.09 323.31Z" fill="#E39D84"/>
<path d="M198.45 314.25L209.45 303.4C211.906 300.982 215.097 299.451 218.52 299.05H218.72C223.39 309.28 217.22 314.28 217.22 314.28L207 323.67C203.125 321.64 200.096 318.303 198.45 314.25Z" fill="#FFBF4C"/>
<path opacity="0.2" d="M198.45 314.25L209.45 303.4C211.906 300.982 215.097 299.451 218.52 299.05H218.72C223.39 309.28 217.22 314.28 217.22 314.28L207 323.67C203.125 321.64 200.096 318.303 198.45 314.25Z" fill="black"/>
<path d="M235.17 291.4C235.553 291.426 235.938 291.376 236.302 291.252C236.666 291.129 237.002 290.934 237.29 290.68C237.514 290.437 237.677 290.145 237.766 289.827C237.855 289.509 237.866 289.174 237.8 288.85C238.122 288.787 238.424 288.645 238.679 288.438C238.934 288.23 239.133 287.963 239.26 287.66C239.362 287.323 239.385 286.967 239.326 286.62C239.267 286.273 239.128 285.944 238.92 285.66C239.389 285.541 239.826 285.321 240.201 285.015C240.576 284.709 240.879 284.325 241.09 283.89C241.306 283.447 241.427 282.963 241.444 282.471C241.461 281.978 241.375 281.487 241.19 281.03C241.703 280.891 242.171 280.624 242.551 280.253C242.931 279.882 243.209 279.419 243.36 278.91C243.521 278.382 243.548 277.823 243.44 277.282C243.332 276.741 243.091 276.235 242.74 275.81C243.182 275.22 243.461 274.523 243.547 273.791C243.633 273.059 243.523 272.317 243.23 271.64C242.893 270.962 242.386 270.383 241.758 269.959C241.131 269.535 240.405 269.28 239.65 269.22C239.755 268.51 239.681 267.785 239.435 267.111C239.188 266.437 238.778 265.835 238.24 265.36C237.696 264.899 237.042 264.585 236.342 264.448C235.641 264.312 234.918 264.357 234.24 264.58C233.994 263.987 233.601 263.465 233.099 263.065C232.597 262.665 232.001 262.398 231.368 262.29C230.735 262.182 230.085 262.237 229.478 262.448C228.872 262.66 228.329 263.022 227.9 263.5C227.585 263.142 227.187 262.868 226.74 262.702C226.293 262.537 225.812 262.484 225.34 262.55C224.859 262.599 224.396 262.764 223.992 263.03C223.588 263.297 223.255 263.657 223.02 264.08C222.413 263.803 221.744 263.687 221.079 263.743C220.414 263.799 219.774 264.025 219.222 264.4C218.669 264.774 218.223 265.285 217.925 265.882C217.627 266.479 217.487 267.143 217.52 267.81C217.035 267.953 216.61 268.252 216.312 268.66C216.013 269.069 215.858 269.564 215.87 270.07C215.911 270.59 216.118 271.084 216.459 271.478C216.801 271.872 217.261 272.146 217.77 272.26C218.726 277.484 220.448 282.539 222.88 287.26C223.95 289.36 225.28 291.49 227.37 292.58C229.68 293.73 233.23 293.06 235.17 291.4Z" fill="#455A64"/>
<path d="M217.03 279.1L214.78 283.02L217.25 283.93L217.03 279.1Z" fill="#E39D84"/>
<path d="M217.81 272.27C216.307 277.698 216.084 283.401 217.16 288.93C217.263 289.881 217.607 290.79 218.16 291.57C218.902 292.371 219.93 292.845 221.02 292.89C222.099 292.927 223.178 292.823 224.23 292.58V297.68C228.11 298.59 232.09 298.96 235.13 296.62V291.4C232.946 292.097 230.623 292.241 228.37 291.82C225.69 290.38 225.15 285.49 225.53 284.2C225.767 284.516 226.091 284.754 226.463 284.886C226.835 285.018 227.238 285.037 227.62 284.94C227.988 284.84 228.333 284.666 228.632 284.429C228.931 284.191 229.179 283.896 229.36 283.56C229.717 282.883 229.938 282.142 230.01 281.38C230.195 280.464 230.053 279.512 229.61 278.69C229.265 278.245 228.796 277.912 228.262 277.734C227.728 277.556 227.153 277.541 226.61 277.69C225.51 278.037 224.593 278.807 224.06 279.83C223.884 280.151 223.734 280.486 223.61 280.83C223.567 280.963 223.479 281.077 223.361 281.152C223.242 281.227 223.102 281.259 222.963 281.241C222.824 281.223 222.696 281.157 222.6 281.055C222.505 280.952 222.448 280.82 222.44 280.68C222.298 279.214 222.561 277.737 223.2 276.41C222.749 276.362 222.315 276.21 221.934 275.965C221.552 275.72 221.232 275.39 221 275C220.743 274.653 220.57 274.251 220.497 273.825C220.424 273.4 220.453 272.963 220.58 272.55C219.647 272.615 218.711 272.521 217.81 272.27Z" fill="#FFBEA7"/>
<path d="M184.63 303.94L183.89 304.11L189.21 301.04L189.95 300.87L184.63 303.94Z" fill="#455A64"/>
<path d="M178.51 290.33L183.82 287.26L178.51 290.33Z" fill="#455A64"/>
<path d="M178.51 290.33L183.52 301.47L184.63 303.94L189.95 300.87L183.82 287.26L178.51 290.33Z" fill="#FFBF4C"/>
<path d="M190.73 300.91L184.26 286.53C184.244 286.483 184.219 286.44 184.186 286.403C184.153 286.366 184.113 286.336 184.068 286.315C184.023 286.295 183.974 286.283 183.925 286.283C183.875 286.282 183.826 286.291 183.78 286.31L177.86 289.74C177.822 289.761 177.789 289.788 177.76 289.82V289.91C177.755 289.953 177.755 289.997 177.76 290.04C177.746 290.089 177.746 290.141 177.76 290.19L184.23 304.57C184.251 304.617 184.278 304.66 184.31 304.7L184.38 304.75H184.43H184.55C184.586 304.76 184.624 304.76 184.66 304.75L190.59 301.33C190.648 301.279 190.692 301.213 190.717 301.139C190.741 301.065 190.746 300.986 190.73 300.91ZM183.82 287.26L190 300.87L184.68 303.94L183.57 301.47L178.57 290.33L183.88 287.26H183.82Z" fill="#455A64"/>
<path d="M184.44 304.91H184.39L184.32 304.86C184.288 304.82 184.261 304.777 184.24 304.73L177.77 290.35C177.756 290.301 177.756 290.249 177.77 290.2C177.765 290.157 177.765 290.113 177.77 290.07V289.98C177.799 289.948 177.832 289.921 177.87 289.9L183.79 286.47H183.87L183.13 286.64H183.05L177.13 290.07C177.092 290.091 177.059 290.118 177.03 290.15C177.009 290.188 176.992 290.228 176.98 290.27C176.975 290.3 176.975 290.33 176.98 290.36V290.44C176.966 290.489 176.966 290.541 176.98 290.59L183.45 304.97C183.477 305.051 183.533 305.12 183.606 305.164C183.679 305.207 183.766 305.224 183.85 305.21L184.59 305.04H184.43L184.44 304.91Z" fill="#37474F"/>
</svg>
