<svg width="500" height="500" viewBox="0 0 500 500" fill="none" xmlns="http://www.w3.org/2000/svg">
<path d="M328 188.17C327.49 189.68 327 190.98 326.46 192.35C325.92 193.72 325.36 195.04 324.78 196.35C323.61 199.02 322.31 201.63 320.9 204.21C319.472 206.828 317.889 209.36 316.16 211.79C314.348 214.361 312.27 216.734 309.96 218.87C309.34 219.42 308.71 219.97 308.01 220.48C307.64 220.75 307.37 220.98 306.92 221.27C306.47 221.56 306.04 221.82 305.57 222.07C303.634 223.095 301.47 223.615 299.28 223.58C297.274 223.539 295.297 223.09 293.47 222.26C291.891 221.539 290.404 220.632 289.04 219.56C286.615 217.61 284.457 215.351 282.62 212.84C281.71 211.66 280.9 210.41 280.12 209.16C279.34 207.91 278.64 206.67 277.95 205.26L282.6 202.37C283.4 203.3 284.32 204.37 285.22 205.29C286.12 206.21 287.07 207.16 288.01 208.05C289.797 209.765 291.765 211.281 293.88 212.57C295.88 213.73 297.88 214.31 299.09 214.11C299.693 214.021 300.268 213.795 300.77 213.45L301.19 213.13C301.31 213.04 301.56 212.8 301.75 212.65C302.15 212.31 302.55 211.91 302.94 211.51C306.261 207.759 309.042 203.561 311.2 199.04C312.41 196.71 313.51 194.3 314.59 191.87C315.12 190.66 315.64 189.43 316.13 188.2C316.62 186.97 317.13 185.69 317.55 184.57L328 188.17Z" fill="#E4897B"/>
<path d="M331 184.59C332.56 191.38 317.67 208.74 317.67 208.74L304.28 199C307.245 193.375 310.806 188.085 314.9 183.22C321 176.25 329.28 177.14 331 184.59Z" fill="#F14460"/>
<path opacity="0.7" d="M331 184.59C332.56 191.38 317.67 208.74 317.67 208.74L304.28 199C307.245 193.375 310.806 188.085 314.9 183.22C321 176.25 329.28 177.14 331 184.59Z" fill="white"/>
<path d="M363.59 183.58C360.952 191.289 358.893 199.184 357.43 207.2C356.38 212.79 355.62 218.14 355.05 223C353.71 234.39 353.4 243.12 352.87 246.05L314.25 240.85C311.63 199.15 323.09 178.49 323.09 178.49C326.196 178.114 329.322 177.931 332.45 177.94C333.11 177.94 333.78 177.94 334.45 177.99C339.961 178.41 345.444 179.148 350.87 180.2C351.87 180.39 352.94 180.61 353.95 180.84C359.1 182 363.59 183.58 363.59 183.58Z" fill="#F14460"/>
<path opacity="0.7" d="M363.59 183.58C360.952 191.289 358.893 199.184 357.43 207.2C356.38 212.79 355.62 218.14 355.05 223C353.71 234.39 353.4 243.12 352.87 246.05L314.25 240.85C311.63 199.15 323.09 178.49 323.09 178.49C326.196 178.114 329.322 177.931 332.45 177.94C333.11 177.94 333.78 177.94 334.45 177.99C339.961 178.41 345.444 179.148 350.87 180.2C351.87 180.39 352.94 180.61 353.95 180.84C359.1 182 363.59 183.58 363.59 183.58Z" fill="white"/>
<path d="M357.43 207.2C356.38 212.79 355.62 218.14 355.05 223L349.83 210.94L357.43 207.2Z" fill="#F14460"/>
<path opacity="0.5" d="M357.43 207.2C356.38 212.79 355.62 218.14 355.05 223L349.83 210.94L357.43 207.2Z" fill="white"/>
<path d="M295 403.3L288.12 400.91L291.81 384.33L298.69 386.72L295 403.3Z" fill="#E4897B"/>
<path d="M361.2 407.21H353.92L348.24 390.33H355.53L361.2 407.21Z" fill="#E4897B"/>
<path d="M291.81 384.34L289.9 392.88L296.79 395.27L298.69 386.72L291.81 384.34Z" fill="#CE6F64"/>
<path d="M355.53 390.34H348.24L351.17 399.04H358.46L355.53 390.34Z" fill="#CE6F64"/>
<path d="M287.87 390.4L299.54 394.4C299.54 394.4 310.95 349.4 314.54 326.97C315.62 320.15 318.06 310.71 321 300.63C324.7 287.93 329.21 274.23 332.87 263.51C336.74 252.22 339.64 244.24 339.64 244.24L314.25 240.82C314.25 240.82 294.91 300.12 292.73 322.25C290.45 345.29 287.87 390.4 287.87 390.4Z" fill="#F14460"/>
<path opacity="0.6" d="M287.87 390.4L299.54 394.4C299.54 394.4 310.95 349.4 314.54 326.97C315.62 320.15 318.06 310.71 321 300.63C324.7 287.93 329.21 274.23 332.87 263.51C336.74 252.22 339.64 244.24 339.64 244.24L314.25 240.82C314.25 240.82 294.91 300.12 292.73 322.25C290.45 345.29 287.87 390.4 287.87 390.4Z" fill="black"/>
<path opacity="0.4" d="M321 300.66C324.7 287.96 329.21 274.26 332.87 263.54L330.6 257.67C323.79 264.78 320.58 287.94 321 300.66Z" fill="black"/>
<path d="M327.94 242.7C327.94 242.7 326.69 305.12 328.4 326.4C330.28 349.7 347.74 397.4 347.74 397.4H361.09C361.09 397.4 352.18 353.79 349.45 331.16C346.34 305.38 352.86 246.1 352.86 246.1L327.94 242.7Z" fill="#F14460"/>
<path opacity="0.6" d="M327.94 242.7C327.94 242.7 326.69 305.12 328.4 326.4C330.28 349.7 347.74 397.4 347.74 397.4H361.09C361.09 397.4 352.18 353.79 349.45 331.16C346.34 305.38 352.86 246.1 352.86 246.1L327.94 242.7Z" fill="black"/>
<path d="M352.94 406.36H361.83C361.975 406.361 362.115 406.411 362.227 406.502C362.34 406.592 362.418 406.719 362.45 406.86L363.89 413.34C363.923 413.498 363.92 413.661 363.882 413.817C363.843 413.974 363.769 414.119 363.666 414.243C363.564 414.367 363.434 414.466 363.287 414.533C363.141 414.6 362.981 414.633 362.82 414.63C359.96 414.58 357.88 414.42 354.28 414.42C352.06 414.42 345.38 414.65 342.33 414.65C339.28 414.65 338.87 411.65 340.12 411.35C345.73 410.12 349.96 408.43 351.76 406.81C352.086 406.521 352.505 406.362 352.94 406.36Z" fill="#263238"/>
<path d="M288.44 400.13L295.96 402.73C296.098 402.778 296.215 402.872 296.293 402.995C296.371 403.119 296.405 403.265 296.39 403.41L295.63 410C295.613 410.16 295.559 410.314 295.473 410.45C295.387 410.586 295.271 410.701 295.135 410.786C294.998 410.871 294.843 410.923 294.683 410.94C294.523 410.956 294.361 410.935 294.21 410.88C291.52 409.88 287.65 408.38 284.21 407.2C280.21 405.82 276.71 404.85 272.03 403.2C269.21 402.2 269.41 399.09 270.69 399.2C276.48 399.89 280.92 401.28 286.57 400.02C287.192 399.885 287.838 399.923 288.44 400.13Z" fill="#263238"/>
<path d="M282.62 205.28L285.56 197.88L276.26 197.56C275.655 198.927 275.503 200.451 275.827 201.911C276.151 203.37 276.933 204.687 278.06 205.67L282.62 205.28Z" fill="#E4897B"/>
<path d="M286.57 192.9L279.28 194.31L276.26 197.56L285.56 197.88L286.57 192.9Z" fill="#E4897B"/>
<path d="M332.68 208.32C331.19 208.313 329.759 207.737 328.68 206.71C327.865 205.888 327.239 204.899 326.843 203.811C326.448 202.724 326.293 201.563 326.39 200.41C326.6 195.71 330.04 191.52 334.04 191.08C334.896 190.977 335.764 191.063 336.583 191.333C337.402 191.603 338.152 192.049 338.78 192.64C339.595 193.462 340.221 194.451 340.617 195.538C341.012 196.626 341.167 197.787 341.07 198.94C340.86 203.65 337.42 207.84 333.42 208.28C333.174 208.31 332.927 208.323 332.68 208.32ZM334.68 192.04H334.1C330.57 192.43 327.53 196.2 327.33 200.43C327.244 201.44 327.378 202.457 327.723 203.41C328.069 204.363 328.617 205.229 329.33 205.95C329.851 206.445 330.476 206.82 331.159 207.046C331.841 207.272 332.566 207.345 333.28 207.26C336.81 206.86 339.85 203.1 340.05 198.87C340.133 197.859 339.997 196.841 339.652 195.887C339.307 194.933 338.761 194.064 338.05 193.34C337.143 192.479 335.94 192 334.69 192L334.68 192.04Z" fill="#FAFAFA"/>
<path d="M351.74 161.49C350 166.64 347.66 176.18 350.88 180.2C349.025 181.679 346.874 182.741 344.572 183.316C342.271 183.89 339.872 183.963 337.54 183.53C333.01 182.82 333.21 179.61 334.46 177.99C340.54 177.38 340.98 172.99 340.46 168.74L351.74 161.49Z" fill="#E4897B"/>
<path d="M347.16 164.45L340.51 168.74C340.632 169.735 340.669 170.739 340.62 171.74C342.92 171.74 346.34 169.66 346.9 167.34C347.165 166.401 347.253 165.421 347.16 164.45Z" fill="#CE6F64"/>
<path d="M338.37 140.85C332.73 140.39 330.77 153.98 334.29 156.59C337.81 159.2 348.94 141.71 338.37 140.85Z" fill="#263238"/>
<path d="M353.44 153.63C352.04 160.72 351.58 164.95 347.44 168.13C341.26 172.92 332.87 168.46 332.13 161.13C331.46 154.49 333.87 144.01 341.25 142.13C342.872 141.699 344.577 141.69 346.203 142.103C347.83 142.515 349.324 143.336 350.545 144.488C351.766 145.639 352.672 147.083 353.179 148.683C353.685 150.283 353.775 151.986 353.44 153.63Z" fill="#E4897B"/>
<path d="M352 160.57C348.5 162.75 345.14 143.38 354.84 143.83C366.73 144.39 359.43 156 352 160.57Z" fill="#263238"/>
<path d="M354.56 147.28C349.9 144.69 342.94 147.94 338.17 145.67C333.4 143.4 325.22 145.39 329.06 138.44C330.22 140.44 335.2 140.56 337.79 137.72C340.38 134.88 343.79 134.06 345.79 137.17C347.79 140.28 353.34 134.06 358.07 138.06C362.17 141.49 361.59 151.19 354.56 147.28Z" fill="#263238"/>
<path d="M358.39 145.64C358.39 145.64 362.61 145.5 363.39 143.31C363.44 145.47 362.39 146.89 358.39 145.64Z" fill="#263238"/>
<path d="M355.61 162C354.441 163.393 352.771 164.27 350.96 164.44C348.56 164.63 347.81 162.38 348.86 160.35C349.8 158.52 352.19 156.22 354.41 156.97C354.895 157.141 355.329 157.432 355.672 157.814C356.016 158.196 356.259 158.658 356.378 159.159C356.497 159.659 356.489 160.181 356.355 160.677C356.221 161.173 355.965 161.628 355.61 162Z" fill="#E4897B"/>
<path d="M346.14 397.64H361.86V392.94L344.29 392.64L346.14 397.64Z" fill="#F14460"/>
<path d="M286.32 390.16L300.21 394.97L301.76 390.49L286.31 384.87L286.32 390.16Z" fill="#F14460"/>
<path d="M342.302 154.153C342.38 153.573 342.133 153.061 341.749 153.009C341.366 152.958 340.992 153.386 340.914 153.966C340.836 154.547 341.083 155.059 341.467 155.11C341.85 155.162 342.224 154.733 342.302 154.153Z" fill="#263238"/>
<path d="M335.74 153.28C335.66 153.86 335.29 154.28 334.91 154.28C334.53 154.28 334.28 153.72 334.36 153.13C334.44 152.54 334.81 152.13 335.19 152.13C335.57 152.13 335.82 152.7 335.74 153.28Z" fill="#263238"/>
<path d="M337.79 153.85C336.857 155.538 335.696 157.089 334.34 158.46C334.699 158.797 335.128 159.052 335.596 159.206C336.064 159.359 336.561 159.409 337.05 159.35L337.79 153.85Z" fill="#DE5753"/>
<path d="M339.3 161.24C339.042 161.243 338.785 161.226 338.53 161.19C338.486 161.183 338.446 161.159 338.418 161.124C338.391 161.089 338.377 161.045 338.38 161C338.387 160.954 338.412 160.913 338.45 160.885C338.487 160.857 338.534 160.844 338.58 160.85C339.302 160.962 340.04 160.903 340.735 160.677C341.43 160.451 342.062 160.065 342.58 159.55C342.614 159.518 342.658 159.5 342.705 159.5C342.752 159.5 342.796 159.518 342.83 159.55C342.862 159.582 342.88 159.625 342.88 159.67C342.88 159.715 342.862 159.758 342.83 159.79C342.368 160.255 341.818 160.623 341.212 160.872C340.605 161.121 339.955 161.246 339.3 161.24Z" fill="#263238"/>
<path d="M344.64 152.31C344.579 152.311 344.52 152.296 344.467 152.266C344.414 152.236 344.37 152.192 344.34 152.14C344.141 151.761 343.857 151.434 343.51 151.184C343.163 150.934 342.762 150.768 342.34 150.7C342.29 150.704 342.239 150.697 342.192 150.68C342.144 150.662 342.101 150.635 342.065 150.6C342.029 150.564 342.002 150.521 341.984 150.474C341.966 150.427 341.959 150.376 341.963 150.326C341.966 150.275 341.981 150.226 342.005 150.182C342.029 150.138 342.063 150.1 342.104 150.07C342.144 150.04 342.191 150.019 342.24 150.008C342.29 149.998 342.341 149.999 342.39 150.01C342.932 150.083 343.45 150.283 343.9 150.594C344.35 150.905 344.72 151.318 344.98 151.8C345.003 151.839 345.018 151.883 345.024 151.928C345.03 151.973 345.026 152.018 345.014 152.062C345.002 152.106 344.981 152.147 344.953 152.183C344.925 152.218 344.89 152.248 344.85 152.27C344.786 152.306 344.712 152.32 344.64 152.31Z" fill="#263238"/>
<path d="M333.21 150.63C333.148 150.645 333.082 150.645 333.02 150.63C332.944 150.579 332.891 150.5 332.872 150.41C332.853 150.32 332.87 150.227 332.92 150.15C333.213 149.686 333.613 149.299 334.086 149.021C334.559 148.742 335.092 148.581 335.64 148.55C335.731 148.552 335.818 148.59 335.881 148.656C335.945 148.721 335.98 148.809 335.98 148.9C335.98 148.99 335.944 149.076 335.88 149.14C335.817 149.204 335.73 149.24 335.64 149.24C335.208 149.271 334.79 149.403 334.419 149.628C334.049 149.852 333.737 150.161 333.51 150.53C333.471 150.569 333.424 150.598 333.372 150.616C333.32 150.633 333.264 150.638 333.21 150.63Z" fill="#263238"/>
<path d="M350.54 407.64C350.04 407.677 349.543 407.543 349.13 407.26C348.999 407.151 348.898 407.01 348.837 406.85C348.775 406.691 348.756 406.519 348.78 406.35C348.779 406.249 348.806 406.151 348.857 406.064C348.908 405.978 348.982 405.907 349.07 405.86C349.88 405.46 352.23 406.86 352.49 407.06C352.518 407.078 352.54 407.104 352.554 407.134C352.568 407.164 352.574 407.197 352.57 407.23C352.566 407.264 352.552 407.296 352.528 407.321C352.505 407.347 352.474 407.364 352.44 407.37C351.82 407.536 351.182 407.626 350.54 407.64ZM349.45 406.13C349.378 406.113 349.302 406.113 349.23 406.13C349.18 406.13 349.13 406.2 349.12 406.33C349.103 406.446 349.116 406.564 349.156 406.674C349.196 406.784 349.263 406.882 349.35 406.96C350.166 407.328 351.091 407.375 351.94 407.09C351.179 406.613 350.334 406.287 349.45 406.13Z" fill="#F14460"/>
<path d="M352.4 407.38H352.32C351.57 406.97 350.11 405.38 350.26 404.56C350.285 404.433 350.354 404.319 350.454 404.236C350.555 404.154 350.68 404.11 350.81 404.11C350.942 404.091 351.076 404.101 351.204 404.138C351.332 404.176 351.45 404.242 351.55 404.33C352.39 405.02 352.55 407.12 352.55 407.21C352.555 407.24 352.551 407.272 352.539 407.3C352.526 407.329 352.506 407.353 352.48 407.37C352.454 407.379 352.427 407.382 352.4 407.38ZM350.93 404.38H350.85C350.63 404.38 350.61 404.51 350.6 404.55C350.51 405.03 351.44 406.24 352.19 406.81C352.135 405.982 351.836 405.188 351.33 404.53C351.214 404.447 351.072 404.408 350.93 404.42V404.38Z" fill="#F14460"/>
<path d="M287.44 400.85C286.26 400.68 284.19 400.27 283.67 399.34C283.6 399.2 283.563 399.046 283.563 398.89C283.563 398.734 283.6 398.579 283.67 398.44C283.703 398.353 283.758 398.275 283.83 398.216C283.902 398.156 283.988 398.116 284.08 398.1C285.08 397.91 287.36 400.29 287.62 400.56C287.639 400.588 287.649 400.621 287.649 400.655C287.649 400.689 287.639 400.722 287.62 400.75C287.604 400.783 287.578 400.81 287.546 400.828C287.513 400.846 287.477 400.854 287.44 400.85ZM284.15 398.44H284.08C284.044 398.449 284.011 398.467 283.984 398.491C283.956 398.515 283.934 398.546 283.92 398.58C283.871 398.67 283.845 398.772 283.845 398.875C283.845 398.978 283.871 399.079 283.92 399.17C284.21 399.7 285.32 400.17 286.92 400.43C286 399.53 284.73 398.44 284.15 398.44Z" fill="#F14460"/>
<path d="M287.44 400.85C287.395 400.85 287.352 400.832 287.32 400.8C286.62 400.14 285.49 398.08 285.88 397.35C285.97 397.17 286.18 396.99 286.65 397.1C286.817 397.138 286.974 397.211 287.111 397.312C287.249 397.414 287.364 397.542 287.45 397.69C287.812 398.65 287.864 399.699 287.6 400.69C287.593 400.718 287.58 400.743 287.56 400.764C287.541 400.785 287.517 400.801 287.49 400.81L287.44 400.85ZM286.39 397.41C286.349 397.404 286.307 397.411 286.27 397.428C286.233 397.446 286.201 397.475 286.18 397.51C285.95 397.95 286.66 399.51 287.33 400.31C287.525 399.499 287.466 398.647 287.16 397.87C287.096 397.762 287.011 397.668 286.909 397.594C286.808 397.52 286.692 397.468 286.57 397.44L286.39 397.41Z" fill="#F14460"/>
<path d="M367.63 192.06C367.5 193.54 367.35 194.85 367.15 196.21C366.95 197.57 366.74 198.91 366.51 200.21C366.03 202.9 365.46 205.57 364.77 208.21C364.08 210.85 363.26 213.51 362.31 216.15L361.57 218.15L360.73 220.15C360.47 220.8 360.14 221.45 359.82 222.15L359.35 223.15L359.23 223.4L359.02 223.79C358.868 224.072 358.701 224.346 358.52 224.61C357.407 226.16 356.009 227.484 354.4 228.51C353.119 229.347 351.783 230.095 350.4 230.75C347.871 231.943 345.265 232.965 342.6 233.81C337.455 235.455 332.189 236.695 326.85 237.52L325.47 232.23C330.21 230.33 335.01 228.29 339.55 226.13C341.765 225.086 343.925 223.928 346.02 222.66C346.962 222.093 347.864 221.461 348.72 220.77C349.297 220.338 349.792 219.807 350.18 219.2L350.26 218.99L350.58 218.17C350.8 217.62 351.02 217.08 351.2 216.5L351.78 214.8L352.31 213.06C352.98 210.72 353.59 208.33 354.11 205.89C354.63 203.45 355.11 200.99 355.51 198.52C355.91 196.05 356.29 193.52 356.6 191.16L367.63 192.06Z" fill="#E4897B"/>
<path d="M369 187.71C373.08 193.36 368.37 210.78 368.37 210.78L349.25 211.39C350.202 204.622 351.666 197.936 353.63 191.39C356.67 182.05 364 180.86 369 187.71Z" fill="#F14460"/>
<path opacity="0.7" d="M369 187.71C373.08 193.36 368.37 210.78 368.37 210.78L349.25 211.39C350.202 204.622 351.666 197.936 353.63 191.39C356.67 182.05 364 180.86 369 187.71Z" fill="white"/>
<path d="M227.85 121.45C214.325 115.585 199.742 112.549 185 112.53C133 112.53 91.87 150.35 86.21 199.98L92.66 196.87L190.66 217.53L227.85 121.45Z" fill="#F14460"/>
<path opacity="0.4" d="M227.85 121.45C214.325 115.585 199.742 112.549 185 112.53C133 112.53 91.87 150.35 86.21 199.98L92.66 196.87L190.66 217.53L227.85 121.45Z" fill="white"/>
<path d="M234.29 118.34C220.759 112.47 206.169 109.435 191.42 109.42C139.42 109.42 98.29 147.24 92.63 196.87L197.11 214.42L234.29 118.34Z" fill="#F14460"/>
<path opacity="0.6" d="M234.29 118.34C220.759 112.47 206.169 109.435 191.42 109.42C139.42 109.42 98.29 147.24 92.63 196.87L197.11 214.42L234.29 118.34Z" fill="white"/>
<path d="M248 114.13L210.8 210.21L303.21 265.21L309.66 262.1C309.66 262.1 316.8 228.73 315.8 210.17C313.55 168.77 254.43 110.98 254.43 110.98L248 114.13Z" fill="#F14460"/>
<path opacity="0.1" d="M248 114.13L210.8 210.21L303.21 265.21L309.66 262.1C309.66 262.1 316.8 228.73 315.8 210.17C313.55 168.77 254.43 110.98 254.43 110.98L248 114.13Z" fill="white"/>
<path d="M254.43 111L217.24 207.1L309.66 262.1C319.015 245.342 323.38 226.258 322.24 207.1C319.92 164.19 292.18 127.31 254.43 111Z" fill="#F14460"/>
<path opacity="0.2" d="M254.43 111L217.24 207.1L309.66 262.1C319.015 245.342 323.38 226.258 322.24 207.1C319.92 164.19 292.18 127.31 254.43 111Z" fill="white"/>
<g style="mix-blend-mode:color-dodge" opacity="0.4">
<path d="M307.26 254C307.218 254.013 307.172 254.013 307.13 254L224.54 204.81C224.489 204.779 224.451 204.73 224.433 204.673C224.414 204.617 224.417 204.555 224.44 204.5L257.44 119.14C257.452 119.106 257.471 119.075 257.495 119.05C257.52 119.024 257.55 119.004 257.583 118.99C257.616 118.977 257.652 118.971 257.688 118.973C257.723 118.974 257.758 118.984 257.79 119C274.484 127.425 288.705 140.04 299.06 155.61C309.387 171.033 315.399 188.939 316.47 207.47C317.387 223.452 314.293 239.409 307.47 253.89C307.455 253.924 307.433 253.954 307.406 253.978C307.378 254.002 307.345 254.02 307.31 254.03L307.26 254ZM225 204.43L307.17 253.37C313.878 239.026 316.913 223.239 316 207.43C314 170.33 291.71 136.66 257.84 119.51L225 204.43Z" fill="#FAFAFA"/>
</g>
<g style="mix-blend-mode:color-dodge" opacity="0.4">
<path d="M193.28 207.94L99.35 192.17C99.2863 192.157 99.2295 192.121 99.19 192.07C99.166 192.009 99.166 191.941 99.19 191.88C102.857 170.336 114.052 150.793 130.78 136.73C147.864 122.678 169.329 115.05 191.45 115.17C203.473 115.17 215.402 117.303 226.68 121.47C226.712 121.478 226.742 121.494 226.766 121.517C226.791 121.54 226.809 121.568 226.82 121.6C226.846 121.664 226.846 121.736 226.82 121.8L193.54 207.8C193.517 207.848 193.48 207.887 193.433 207.912C193.386 207.938 193.333 207.947 193.28 207.94ZM99.69 191.72L193.12 207.41L226.23 121.85C215.076 117.763 203.289 115.671 191.41 115.67C145.26 115.67 107.57 146.93 99.69 191.72Z" fill="#FAFAFA"/>
</g>
<path d="M190.66 217.53L92.66 196.87L86.18 200C85.5168 205.825 85.3462 211.696 85.67 217.55C88.81 275.55 138.37 322.55 196.36 322.55C234.16 322.55 266.21 302.55 283.07 272.55L190.66 217.53Z" fill="#F14460"/>
<path opacity="0.2" d="M190.66 217.53L92.66 196.87L86.18 200C85.5168 205.825 85.3462 211.696 85.67 217.55C88.81 275.55 138.37 322.55 196.36 322.55C234.16 322.55 266.21 302.55 283.07 272.55L190.66 217.53Z" fill="black"/>
<path d="M197.11 214.42L92.63 196.87C91.9683 202.695 91.7944 208.566 92.11 214.42C95.26 272.42 144.81 319.42 202.8 319.42C240.61 319.42 272.66 299.42 289.52 269.42L197.11 214.42Z" fill="#F14460"/>
<path opacity="0.1" d="M197.11 214.42L92.63 196.87C91.9683 202.695 91.7944 208.566 92.11 214.42C95.26 272.42 144.81 319.42 202.8 319.42C240.61 319.42 272.66 299.42 289.52 269.42L197.11 214.42Z" fill="black"/>
<g style="mix-blend-mode:color-dodge" opacity="0.4">
<path d="M202.8 313.67C147.91 313.67 100.8 269 97.8 214.11C97.625 210.695 97.625 207.274 97.8 203.86C97.7987 203.825 97.8063 203.79 97.822 203.758C97.8378 203.727 97.8611 203.7 97.89 203.68C97.9162 203.655 97.948 203.636 97.9828 203.626C98.0176 203.615 98.0543 203.613 98.09 203.62L195.02 219.9H195.1L281.36 271.28C281.39 271.297 281.416 271.32 281.437 271.347C281.457 271.375 281.472 271.406 281.48 271.44C281.503 271.501 281.503 271.569 281.48 271.63C273.091 284.598 261.556 295.232 247.95 302.54C234.04 309.896 218.535 313.719 202.8 313.67ZM98.31 204.16C98.16 207.46 98.17 210.79 98.31 214.08C101.31 268.71 148.13 313.17 202.76 313.17C235.21 313.17 263.67 298.02 280.87 271.61L194.87 220.39L98.31 204.16Z" fill="#FAFAFA"/>
</g>
<path d="M83.66 230.76C82.9108 226.459 82.4132 222.119 82.17 217.76L83.17 217.7C83.4039 222.032 83.8947 226.346 84.64 230.62L83.66 230.76Z" fill="#F14460"/>
<path opacity="0.2" d="M83.66 230.76C82.9108 226.459 82.4132 222.119 82.17 217.76L83.17 217.7C83.4039 222.032 83.8947 226.346 84.64 230.62L83.66 230.76Z" fill="black"/>
<path d="M86 241C85.44 239 84.93 236.88 84.49 234.83L85.49 234.62C85.93 236.62 86.43 238.71 86.98 240.74L86 241Z" fill="#F14460"/>
<path opacity="0.2" d="M86 241C85.44 239 84.93 236.88 84.49 234.83L85.49 234.62C85.93 236.62 86.43 238.71 86.98 240.74L86 241Z" fill="black"/>
<path d="M327.42 232.13L320.28 230.21L321.83 239.38C321.83 239.38 328.27 239.67 328.83 236.27L327.42 232.13Z" fill="#E4897B"/>
<path d="M314.66 232.54L316.3 240.07L321.83 239.38L320.28 230.21L314.66 232.54Z" fill="#E4897B"/>
</svg>
