<svg width="606" height="326" viewBox="0 0 606 326" fill="none" xmlns="http://www.w3.org/2000/svg">
<path d="M400.7 198.04C406.553 202.92 409.48 209.687 409.48 218.34C409.48 226.994 406.553 233.72 400.7 238.52C394.853 243.4 386.783 245.837 376.49 245.83H353.09V272.62H347.09V190.68H376.46C386.767 190.68 394.847 193.134 400.7 198.04ZM396.49 234.72C401.09 230.9 403.39 225.44 403.39 218.34C403.39 211.24 401.09 205.764 396.49 201.91C391.89 198.037 385.223 196.104 376.49 196.11H353.09V240.45H376.49C385.223 240.417 391.89 238.49 396.49 234.67V234.72Z" fill="black"/>
<path d="M435.63 269.04C431.04 266.451 427.254 262.644 424.69 258.04C422.074 253.123 420.706 247.639 420.706 242.07C420.706 236.501 422.074 231.017 424.69 226.1C427.245 221.474 431.032 217.645 435.63 215.04C440.42 212.428 445.789 211.06 451.245 211.06C456.701 211.06 462.07 212.428 466.86 215.04C471.45 217.629 475.236 221.436 477.8 226.04C480.416 230.957 481.784 236.441 481.784 242.01C481.784 247.579 480.416 253.063 477.8 257.98C475.236 262.584 471.45 266.391 466.86 268.98C462.07 271.592 456.701 272.96 451.245 272.96C445.789 272.96 440.42 271.592 435.63 268.98V269.04ZM463.82 264.48C467.524 262.298 470.56 259.144 472.6 255.36C474.71 251.23 475.811 246.658 475.811 242.02C475.811 237.382 474.71 232.81 472.6 228.68C470.56 224.896 467.524 221.742 463.82 219.56C459.978 217.41 455.648 216.281 451.245 216.281C446.842 216.281 442.512 217.41 438.67 219.56C434.964 221.739 431.927 224.894 429.89 228.68C427.78 232.81 426.68 237.382 426.68 242.02C426.68 246.658 427.78 251.23 429.89 255.36C431.927 259.146 434.964 262.301 438.67 264.48C442.512 266.63 446.842 267.759 451.245 267.759C455.648 267.759 459.978 266.63 463.82 264.48Z" fill="black"/>
<path d="M499.91 185.77H505.76V272.57H499.91V185.77Z" fill="black"/>
<path d="M530.44 185.77H536.29V272.57H530.44V185.77Z" fill="black"/>
<path d="M474.33 91.6L453.19 156.25C452.625 157.979 451.527 159.484 450.054 160.551C448.581 161.618 446.809 162.192 444.99 162.19H437.15C435.324 162.189 433.545 161.607 432.071 160.529C430.597 159.45 429.504 157.931 428.95 156.19L420.95 131.52C420.389 129.796 419.298 128.293 417.833 127.224C416.368 126.156 414.604 125.576 412.79 125.569C410.977 125.561 409.208 126.125 407.734 127.181C406.26 128.237 405.156 129.731 404.58 131.45L396.25 156.27C395.674 157.981 394.576 159.467 393.11 160.521C391.644 161.574 389.885 162.14 388.08 162.14H355.74C353.454 162.14 351.261 161.232 349.645 159.615C348.028 157.999 347.12 155.806 347.12 153.52V88.92C347.12 86.6339 348.028 84.4413 349.645 82.8248C351.261 81.2082 353.454 80.3 355.74 80.3H361.08C362.769 80.3007 364.42 80.7977 365.828 81.7294C367.236 82.6611 368.339 83.9863 369 85.54L375.82 101.54C376.443 103.002 377.457 104.263 378.752 105.184C380.046 106.106 381.57 106.652 383.155 106.761C384.741 106.871 386.325 106.54 387.734 105.806C389.143 105.072 390.322 103.962 391.14 102.6L402.04 84.5C402.806 83.2262 403.887 82.172 405.18 81.4396C406.473 80.7072 407.934 80.3215 409.42 80.32H415.82C417.647 80.3221 419.427 80.9041 420.903 81.9824C422.378 83.0607 423.473 84.5795 424.03 86.32L432.69 113.17C433.257 114.898 434.355 116.402 435.827 117.469C437.3 118.536 439.072 119.11 440.89 119.11C442.708 119.11 444.48 118.536 445.953 117.469C447.425 116.402 448.523 114.898 449.09 113.17L458 86.23C458.567 84.505 459.664 83.0029 461.134 81.9381C462.605 80.8732 464.374 80.2999 466.19 80.3C467.548 80.3062 468.885 80.6335 470.093 81.2552C471.3 81.877 472.343 82.7755 473.137 83.8775C473.931 84.9794 474.453 86.2535 474.66 87.5956C474.867 88.9378 474.754 90.31 474.33 91.6Z" fill="black"/>
<path d="M487.75 161.2C483.534 160.234 479.502 158.593 475.81 156.34L481.9 143.24C485.057 145.192 488.484 146.671 492.07 147.63C495.872 148.736 499.81 149.308 503.77 149.33C511.503 149.33 515.367 147.417 515.36 143.59C515.36 141.8 514.3 140.51 512.2 139.73C509.043 138.724 505.788 138.054 502.49 137.73C498.181 137.139 493.92 136.24 489.74 135.04C486.41 134.048 483.401 132.191 481.02 129.66C478.56 127.093 477.33 123.427 477.33 118.66C477.277 114.849 478.491 111.128 480.78 108.08C483.391 104.779 486.882 102.283 490.85 100.88C495.85 99.0653 501.143 98.1939 506.46 98.3101C510.927 98.3134 515.379 98.8029 519.74 99.7701C523.575 100.518 527.267 101.868 530.68 103.77L524.6 116.77C519.067 113.651 512.812 112.037 506.46 112.09C502.56 112.09 499.637 112.637 497.69 113.73C495.74 114.82 494.77 116.23 494.77 117.94C494.77 119.887 495.82 121.253 497.92 122.04C501.203 123.1 504.578 123.853 508 124.29C512.258 124.952 516.473 125.87 520.62 127.04C523.893 128.014 526.843 129.852 529.16 132.36C531.58 134.94 532.79 138.527 532.79 143.12C532.836 146.891 531.598 150.566 529.28 153.54C526.59 156.823 523.026 159.278 519 160.62C513.858 162.401 508.44 163.251 503 163.13C497.856 163.133 492.731 162.485 487.75 161.2Z" fill="black"/>
<path d="M605.32 135.87H557.71C558.463 139.621 560.643 142.934 563.79 145.11C567.309 147.472 571.484 148.662 575.72 148.51C578.693 148.563 581.649 148.064 584.44 147.04C587.088 145.994 589.496 144.422 591.52 142.42L601.23 152.95C595.297 159.737 586.63 163.13 575.23 163.13C568.713 163.261 562.259 161.838 556.4 158.98C551.172 156.423 546.786 152.422 543.76 147.45C540.759 142.392 539.222 136.6 539.32 130.72C539.242 124.862 540.767 119.094 543.73 114.04C546.587 109.149 550.74 105.142 555.73 102.46C560.962 99.7619 566.758 98.3398 572.645 98.3103C578.531 98.2807 584.341 99.6445 589.6 102.29C594.536 104.878 598.62 108.837 601.36 113.69C604.289 118.963 605.763 124.92 605.63 130.95C605.67 131.19 605.55 132.83 605.32 135.87ZM562.62 115.63C559.761 118.072 557.923 121.498 557.47 125.23H588.47C588 121.523 586.168 118.122 583.33 115.69C580.447 113.283 576.784 112.014 573.03 112.12C569.251 112 565.555 113.246 562.62 115.63Z" fill="black"/>
<path d="M490.19 62.3302C490.228 63.7449 489.964 65.1515 489.413 66.4554C488.863 67.7594 488.04 68.9305 487 69.8902C484.769 71.9259 481.828 73.0033 478.81 72.8902C475.802 73.0118 472.864 71.9655 470.61 69.9702C469.624 69.0357 468.838 67.91 468.301 66.6618C467.764 65.4135 467.487 64.069 467.487 62.7102C467.487 61.3513 467.764 60.0068 468.301 58.7585C468.838 57.5103 469.624 56.3846 470.61 55.4502C472.864 53.4548 475.802 52.4085 478.81 52.5302C481.793 52.3899 484.719 53.383 487 55.3102C488.019 56.1709 488.833 57.2472 489.385 58.4612C489.937 59.6753 490.212 60.9968 490.19 62.3302Z" fill="black"/>
<path d="M44.08 22.04V115.65L0 99.8V22.04C0 16.1946 2.32206 10.5887 6.45537 6.45537C10.5887 2.32206 16.1946 0 22.04 0C27.8854 0 33.4913 2.32206 37.6246 6.45537C41.7579 10.5887 44.08 16.1946 44.08 22.04Z" fill="#79018C"/>
<path d="M44.08 115.69V303.46C44.08 309.305 41.7579 314.911 37.6246 319.045C33.4913 323.178 27.8854 325.5 22.04 325.5C16.1946 325.5 10.5887 323.178 6.45537 319.045C2.32206 314.911 0 309.305 0 303.46L0 99.8L44.08 115.69Z" fill="#FFBF4C"/>
<path d="M139 155.33V303.46C139 309.303 136.679 314.906 132.548 319.038C128.416 323.169 122.813 325.49 116.97 325.49C111.127 325.49 105.524 323.169 101.392 319.038C97.261 314.906 94.94 309.303 94.94 303.46V175.98L139 155.33Z" fill="#F14460"/>
<path d="M139 81.26V155.33L94.94 175.98V81.26C94.9412 80.4115 94.988 79.5636 95.08 78.72C95.1333 78.3067 95.1933 77.8967 95.26 77.49C95.32 77.12 95.4 76.75 95.48 76.39C95.4753 76.3201 95.4753 76.2499 95.48 76.18C95.57 75.83 95.66 75.49 95.76 75.18C95.7553 75.1469 95.7553 75.1132 95.76 75.08C95.84 74.81 95.93 74.55 96.02 74.28C96.11 74.01 96.12 73.95 96.18 73.79C96.3 73.46 96.42 73.14 96.56 72.79C96.7 72.44 96.87 72.06 97.04 71.7C97.21 71.34 97.28 71.21 97.42 70.97C97.56 70.73 97.62 70.6 97.72 70.41C97.7474 70.3532 97.7809 70.2995 97.82 70.25C97.93 70.06 98.04 69.87 98.16 69.68C98.28 69.49 98.43 69.24 98.57 69.03C98.71 68.82 98.86 68.61 99.01 68.41C99.16 68.21 99.29 68.02 99.44 67.83C99.7502 67.4113 100.084 67.0107 100.44 66.63C100.6 66.44 100.77 66.27 100.93 66.09C101.28 65.72 101.63 65.37 102 65.03C102.19 64.85 102.38 64.68 102.57 64.53L103.08 64.1C103.5 63.76 103.93 63.4267 104.37 63.1L105.01 62.68C105.22 62.54 105.44 62.41 105.66 62.28C106.854 61.5641 108.117 60.9711 109.43 60.51C109.68 60.41 109.94 60.32 110.2 60.24C110.954 59.9977 111.722 59.8007 112.5 59.65C112.76 59.59 113.02 59.54 113.29 59.5C114.104 59.3668 114.926 59.28 115.75 59.24C116.12 59.24 116.49 59.24 116.87 59.24C119.762 59.2347 122.627 59.8019 125.3 60.9089C127.972 62.0159 130.399 63.6408 132.44 65.69C132.94 66.19 133.44 66.69 133.86 67.25C134.28 67.81 134.73 68.36 135.13 68.95C137.626 72.5721 138.974 76.8613 139 81.26Z" fill="#79018C"/>
<path d="M233.93 137.73V208.73L189.86 231.6V137.73C189.812 132.492 191.634 127.408 195 123.394C198.365 119.379 203.053 116.697 208.219 115.831C213.386 114.964 218.692 115.969 223.183 118.666C227.674 121.362 231.056 125.573 232.72 130.54C233.526 132.851 233.935 135.282 233.93 137.73Z" fill="#FFBF4C"/>
<path d="M233.93 208.74V303.46C233.93 309.304 231.608 314.909 227.476 319.041C223.344 323.173 217.739 325.495 211.895 325.495C206.051 325.495 200.446 323.173 196.314 319.041C192.182 314.909 189.86 309.304 189.86 303.46V231.61L233.93 208.74Z" fill="#79018C"/>
</svg>
