<svg width="458" height="435" viewBox="0 0 458 435" fill="none" xmlns="http://www.w3.org/2000/svg">
<path d="M458 0V430.723C353.404 443.662 251.575 431.73 264.75 331.506C290.972 132.025 146.757 268.628 45.1544 167.633C-6.76548 115.997 -5.62335 51.1057 7.92224 0H458Z" fill="#FFBF4C"/>
<path d="M458 0V408.61C361.191 422.192 264.073 413.133 276.251 317.677C299.858 132.766 170.011 259.387 78.5309 165.751C28.2988 114.333 33.2274 48.7149 47.8933 0H458Z" fill="#F14460"/>
<path d="M110.311 152.859C184.67 239.21 290.219 122.45 271.028 292.965C259.461 395.794 369.103 389.908 457.989 369.026V0H85.4092C73.475 44.9214 69.4738 105.438 110.311 152.859Z" fill="#79018C"/>
</svg>
