<?xml version="1.0" standalone="no"?>
<!DOCTYPE svg PUBLIC "-//W3C//DTD SVG 20010904//EN"
 "http://www.w3.org/TR/2001/REC-SVG-20010904/DTD/svg10.dtd">
<svg version="1.0" xmlns="http://www.w3.org/2000/svg"
 width="326.000000pt" height="326.000000pt" viewBox="0 0 326.000000 326.000000"
 preserveAspectRatio="xMidYMid meet">
<metadata>
Created by potrace 1.14, written by Peter Selinger 2001-2017
</metadata>
<g transform="translate(0.000000,326.000000) scale(0.100000,-0.100000)"
fill="#000000" stroke="none">
<path d="M585 3235 c-57 -29 -100 -81 -115 -136 -7 -24 -9 -539 -8 -1491 3
-1417 3 -1454 22 -1483 54 -83 110 -117 196 -117 97 0 186 65 210 151 12 44
16 2889 4 2938 -21 88 -103 152 -204 160 -45 4 -64 0 -105 -22z"/>
<path d="M1573 2660 c-54 -12 -110 -57 -140 -113 -17 -30 -18 -106 -21 -1190
-1 -743 1 -1172 8 -1195 5 -20 24 -54 41 -75 110 -134 322 -93 378 72 15 44
16 2298 1 2352 -13 46 -70 112 -116 134 -42 20 -103 26 -151 15z"/>
<path d="M2545 2100 c-53 -8 -97 -32 -130 -72 -60 -71 -57 -25 -57 -973 1
-955 -2 -912 60 -978 117 -125 334 -71 371 92 15 65 14 1733 -1 1781 -16 51
-63 106 -111 129 -52 25 -80 29 -132 21z"/>
</g>
</svg>
